<?xml version="1.0" encoding="UTF-8" standalone="no"?>
<svg
   xmlns:dc="http://purl.org/dc/elements/1.1/"
   xmlns:cc="http://creativecommons.org/ns#"
   xmlns:rdf="http://www.w3.org/1999/02/22-rdf-syntax-ns#"
   xmlns:svg="http://www.w3.org/2000/svg"
   xmlns="http://www.w3.org/2000/svg"
   viewBox="0 0 1022.72 416"
   height="416"
   width="1022.72"
   xml:space="preserve"
   id="svg2"
   version="1.1"><metadata
     id="metadata8"><rdf:RDF><cc:Work
         rdf:about=""><dc:format>image/svg+xml</dc:format><dc:type
           rdf:resource="http://purl.org/dc/dcmitype/StillImage" /></cc:Work></rdf:RDF></metadata><defs
     id="defs6"><clipPath
       id="clipPath18"
       clipPathUnits="userSpaceOnUse"><path
         style="clip-rule:evenodd"
         id="path16"
         d="M 0,0 H 3193.3486 V 1260.3784 H 0 Z" /></clipPath><clipPath
       id="clipPath160"
       clipPathUnits="userSpaceOnUse"><path
         style="clip-rule:evenodd"
         id="path158"
         d="M 681.36469,0 H 1032.2821 V 26.318808 H 681.36469 Z" /></clipPath><clipPath
       id="clipPath174"
       clipPathUnits="userSpaceOnUse"><path
         style="clip-rule:evenodd"
         id="path172"
         d="M 0,0 H 3193.3486 V 1260.3784 H 0 Z" /></clipPath></defs><g
     transform="matrix(0.31999998,0,0,0.31999998,0,1.04e-5)"
     id="g10"><g
       id="g12"><g
         clip-path="url(#clipPath18)"
         id="g14"><g
           transform="scale(2.9243119)"
           id="g20"><path
             id="path22"
             style="fill:#fcfaf6;fill-opacity:1;fill-rule:nonzero;stroke:none"
             d="M -1,-1 H 1091 V 10 H -1 Z" /><path
             id="path24"
             style="fill:#fcfaf6;fill-opacity:1;fill-rule:nonzero;stroke:none"
             d="M -1,9 H 112 V 60 H -1 Z" /><path
             id="path26"
             style="fill:#666666;fill-opacity:1;fill-rule:nonzero;stroke:none"
             d="m 111,9 h 969 V 60 H 111 Z" /><path
             id="path28"
             style="fill:#fcfaf6;fill-opacity:1;fill-rule:nonzero;stroke:none"
             d="m 1079,9 h 12 v 51 h -12 z" /><path
             id="path30"
             style="fill:#fcfaf6;fill-opacity:1;fill-rule:nonzero;stroke:none"
             d="M -1,59 H 11 V 430 H -1 Z" /><path
             id="path32"
             style="fill:#999999;fill-opacity:1;fill-rule:nonzero;stroke:none"
             d="M 10,59 H 112 V 420 H 10 Z" /><path
             id="path34"
             style="fill:#d9d9d9;fill-opacity:1;fill-rule:nonzero;stroke:none"
             d="M 111,59 H 233 V 420 H 111 Z" /><path
             id="path36"
             style="fill:#9fc5e8;fill-opacity:1;fill-rule:nonzero;stroke:none"
             d="M 232,59 H 354 V 190 H 232 Z" /><path
             id="path38"
             style="fill:#ffe599;fill-opacity:1;fill-rule:nonzero;stroke:none"
             d="M 353,59 H 475 V 190 H 353 Z" /><path
             id="path40"
             style="fill:#b6d7a8;fill-opacity:1;fill-rule:nonzero;stroke:none"
             d="M 474,59 H 596 V 190 H 474 Z" /><path
             id="path42"
             style="fill:#ffe599;fill-opacity:1;fill-rule:nonzero;stroke:none"
             d="M 595,59 H 717 V 190 H 595 Z" /><path
             id="path44"
             style="fill:#b6d7a8;fill-opacity:1;fill-rule:nonzero;stroke:none"
             d="M 716,59 H 838 V 190 H 716 Z" /><path
             id="path46"
             style="fill:#9fc5e8;fill-opacity:1;fill-rule:nonzero;stroke:none"
             d="M 837,59 H 959 V 190 H 837 Z" /><path
             id="path48"
             style="fill:#d9d9d9;fill-opacity:1;fill-rule:nonzero;stroke:none"
             d="m 958,59 h 122 V 190 H 958 Z" /><path
             id="path50"
             style="fill:#fcfaf6;fill-opacity:1;fill-rule:nonzero;stroke:none"
             d="m 1079,59 h 12 v 131 h -12 z" /><path
             id="path52"
             style="fill:#ea9999;fill-opacity:1;fill-rule:nonzero;stroke:none"
             d="M 232,189 H 354 V 320 H 232 Z" /><path
             id="path54"
             style="fill:#ffe599;fill-opacity:1;fill-rule:nonzero;stroke:none"
             d="M 353,189 H 475 V 320 H 353 Z" /><path
             id="path56"
             style="fill:#b6d7a8;fill-opacity:1;fill-rule:nonzero;stroke:none"
             d="M 474,189 H 596 V 320 H 474 Z" /><path
             id="path58"
             style="fill:#ea9999;fill-opacity:1;fill-rule:nonzero;stroke:none"
             d="M 595,189 H 717 V 320 H 595 Z" /><path
             id="path60"
             style="fill:#b6d7a8;fill-opacity:1;fill-rule:nonzero;stroke:none"
             d="M 716,189 H 838 V 320 H 716 Z" /><path
             id="path62"
             style="fill:#9fc5e8;fill-opacity:1;fill-rule:nonzero;stroke:none"
             d="M 837,189 H 959 V 320 H 837 Z" /><path
             id="path64"
             style="fill:#d9d9d9;fill-opacity:1;fill-rule:nonzero;stroke:none"
             d="m 958,189 h 122 V 320 H 958 Z" /><path
             id="path66"
             style="fill:#fcfaf6;fill-opacity:1;fill-rule:nonzero;stroke:none"
             d="m 1079,189 h 12 v 131 h -12 z" /><path
             id="path68"
             style="fill:#d9d9d9;fill-opacity:1;fill-rule:nonzero;stroke:none"
             d="M 232,319 H 354 V 420 H 232 Z" /><path
             id="path70"
             style="fill:#b4a7d6;fill-opacity:1;fill-rule:nonzero;stroke:none"
             d="M 353,319 H 475 V 420 H 353 Z" /><path
             id="path72"
             style="fill:#d9d9d9;fill-opacity:1;fill-rule:nonzero;stroke:none"
             d="M 474,319 H 596 V 420 H 474 Z" /><path
             id="path74"
             style="fill:#b4a7d6;fill-opacity:1;fill-rule:nonzero;stroke:none"
             d="M 595,319 H 717 V 420 H 595 Z" /><path
             id="path76"
             style="fill:#b6d7a8;fill-opacity:1;fill-rule:nonzero;stroke:none"
             d="M 716,319 H 838 V 420 H 716 Z" /><path
             id="path78"
             style="fill:#b4a7d6;fill-opacity:1;fill-rule:nonzero;stroke:none"
             d="M 837,319 H 959 V 420 H 837 Z" /><path
             id="path80"
             style="fill:#d9d9d9;fill-opacity:1;fill-rule:nonzero;stroke:none"
             d="m 958,319 h 122 V 420 H 958 Z" /><path
             id="path82"
             style="fill:#fcfaf6;fill-opacity:1;fill-rule:nonzero;stroke:none"
             d="m 1079,319 h 12 v 101 h -12 z" /><path
             id="path84"
             style="fill:#fcfaf6;fill-opacity:1;fill-rule:nonzero;stroke:none"
             d="m 10,419 h 1081 v 11 H 10 Z" /><path
             id="path86"
             style="fill:none;stroke:#fcfaf6;stroke-width:1;stroke-linecap:butt;stroke-linejoin:miter;stroke-miterlimit:10;stroke-dasharray:none;stroke-opacity:1"
             d="M -0.5,-1 V 430 M -1,9.5 H 9 M 10.5,-1 V 8 M -1,35.5 H 9 m -10,24 H 9 m -10,130 H 9 m -10,130 H 9 m -10,100 H 9 m 1.5,1.5 v 9 m 101,-431 v 9 m 0,413 v 9 m 121,-431 v 9 m 0,413 v 9 m 121,-431 v 9 m 0,413 v 9 m 121,-431 v 9 m 0,413 v 9 m 121,-431 v 9 m 0,413 v 9 m 121,-431 v 9 m 0,413 v 9 m 121,-431 v 9 m 0,413 v 9 m 121,-431 v 9 m 0,413 v 9 m 121,-431 v 9 m 0,413 v 9 M -1,-0.5 h 1092 m -10,10 h 10 m -10,26 h 10 m -10,24 h 10 m -10,130 h 10 m -10,130 h 10 m -10,100 h 10 M -1,429.5 H 1091 M 1090.5,-1 v 431" /><path
             id="path88"
             style="fill:none;stroke:#fcfaf6;stroke-width:1;stroke-linecap:butt;stroke-linejoin:miter;stroke-miterlimit:10;stroke-dasharray:none;stroke-opacity:1"
             d="M 10.5,8 V 421 M 9,319.5 H 113 M 111.5,8 V 421 M 232.5,8 V 421 M 9,189.5 H 355 M 353.5,8 V 421 M 474.5,8 V 421 M 595.5,8 V 421 M 594,189.5 h 124 m -487,130 H 718 M 716.5,8 V 421 M 837.5,8 V 421 M 836,189.5 h 124 m -124,130 H 960 M 958.5,8 V 421 M 9,9.5 H 1081 M 9,35.5 H 1081 M 9,59.5 H 1081 M 9,419.5 H 1081 M 1079.5,8 v 413" /><text
             id="text92"
             style="font-variant:normal;font-weight:bold;font-size:13.32999992px;font-family:Lora;-inkscape-font-specification:Lora-Bold;writing-mode:lr-tb;fill:#ffffff;fill-opacity:1;fill-rule:nonzero;stroke:none"
             transform="translate(154.91122,27)"><tspan
               id="tspan90"
               y="0"
               x="0 10.037476 16.849091 24.193909 27.699692">Day 0</tspan></text>
<text
             id="text96"
             style="font-variant:normal;font-weight:bold;font-size:13.32999992px;font-family:Lora;-inkscape-font-specification:Lora-Bold;writing-mode:lr-tb;fill:#ffffff;fill-opacity:1;fill-rule:nonzero;stroke:none"
             transform="translate(277.44415,27)"><tspan
               id="tspan94"
               y="0"
               x="0 10.037476 16.849091 24.193909 27.699692">Day 1</tspan></text>
<text
             id="text100"
             style="font-variant:normal;font-weight:bold;font-size:13.32999992px;font-family:Lora;-inkscape-font-specification:Lora-Bold;writing-mode:lr-tb;fill:#ffffff;fill-opacity:1;fill-rule:nonzero;stroke:none"
             transform="translate(397.59772,27)"><tspan
               id="tspan98"
               y="0"
               x="0 10.037476 16.849091 24.193909 27.699692">Day 2</tspan></text>
<text
             id="text104"
             style="font-variant:normal;font-weight:bold;font-size:13.32999992px;font-family:Lora;-inkscape-font-specification:Lora-Bold;writing-mode:lr-tb;fill:#ffffff;fill-opacity:1;fill-rule:nonzero;stroke:none"
             transform="translate(518.41772,27)"><tspan
               id="tspan102"
               y="0"
               x="0 10.037476 16.849091 24.193909 27.699692">Day 3</tspan></text>
<text
             id="text108"
             style="font-variant:normal;font-weight:bold;font-size:13.32999992px;font-family:Lora;-inkscape-font-specification:Lora-Bold;writing-mode:lr-tb;fill:#ffffff;fill-opacity:1;fill-rule:nonzero;stroke:none"
             transform="translate(639.50439,27)"><tspan
               id="tspan106"
               y="0"
               x="0 10.037476 16.849091 24.193909 27.699692">Day 4</tspan></text>
<text
             id="text112"
             style="font-variant:normal;font-weight:bold;font-size:13.32999992px;font-family:Lora;-inkscape-font-specification:Lora-Bold;writing-mode:lr-tb;fill:#ffffff;fill-opacity:1;fill-rule:nonzero;stroke:none"
             transform="translate(760.55103,27)"><tspan
               id="tspan110"
               y="0"
               x="0 10.037476 16.849091 24.193909 27.699692">Day 5</tspan></text>
<text
             id="text116"
             style="font-variant:normal;font-weight:bold;font-size:13.32999992px;font-family:Lora;-inkscape-font-specification:Lora-Bold;writing-mode:lr-tb;fill:#ffffff;fill-opacity:1;fill-rule:nonzero;stroke:none"
             transform="translate(881.31775,27)"><tspan
               id="tspan114"
               y="0"
               x="0 10.037476 16.849091 24.193909 27.699692">Day 6</tspan></text>
<text
             id="text120"
             style="font-variant:normal;font-weight:bold;font-size:13.32999992px;font-family:Lora;-inkscape-font-specification:Lora-Bold;writing-mode:lr-tb;fill:#ffffff;fill-opacity:1;fill-rule:nonzero;stroke:none"
             transform="translate(1003.0243,27)"><tspan
               id="tspan118"
               y="0"
               x="0 10.037476 16.849091 24.193909 27.699692">Day 7</tspan></text>
<text
             id="text124"
             style="font-variant:normal;font-weight:bold;font-size:13.32999992px;font-family:Lora;-inkscape-font-specification:Lora-Bold;writing-mode:lr-tb;fill:#ffffff;fill-opacity:1;fill-rule:nonzero;stroke:none"
             transform="translate(137.8688,52)"><tspan
               id="tspan122"
               y="0"
               x="0 7.1048889 14.769638 18.275421 24.007324 32.245255 36.404205 39.909988 47.014877 55.492752 62.597641">26 Jul 2026</tspan></text>
<text
             id="text128"
             style="font-variant:normal;font-weight:bold;font-size:13.32999992px;font-family:Lora;-inkscape-font-specification:Lora-Bold;writing-mode:lr-tb;fill:#ffffff;fill-opacity:1;fill-rule:nonzero;stroke:none"
             transform="translate(259.57529,52)"><tspan
               id="tspan126"
               y="0"
               x="0 7.1048889 13.356659 16.862442 22.594345 30.832275 34.991226 38.497009 45.601898 54.079773 61.184662">27 Jul 2026</tspan></text>
<text
             id="text132"
             style="font-variant:normal;font-weight:bold;font-size:13.32999992px;font-family:Lora;-inkscape-font-specification:Lora-Bold;writing-mode:lr-tb;fill:#ffffff;fill-opacity:1;fill-rule:nonzero;stroke:none"
             transform="translate(379.88879,52)"><tspan
               id="tspan130"
               y="0"
               x="0 7.1048889 14.729645 18.235428 23.967331 32.205261 36.364212 39.869995 46.974884 55.452759 62.557648">28 Jul 2026</tspan></text>
<text
             id="text136"
             style="font-variant:normal;font-weight:bold;font-size:13.32999992px;font-family:Lora;-inkscape-font-specification:Lora-Bold;writing-mode:lr-tb;fill:#ffffff;fill-opacity:1;fill-rule:nonzero;stroke:none"
             transform="translate(500.86215,52)"><tspan
               id="tspan134"
               y="0"
               x="0 7.1048889 14.782959 18.288742 24.020645 32.258575 36.417526 39.923309 47.028198 55.506073 62.610962">29 Jul 2026</tspan></text>
<text
             id="text140"
             style="font-variant:normal;font-weight:bold;font-size:13.32999992px;font-family:Lora;-inkscape-font-specification:Lora-Bold;writing-mode:lr-tb;fill:#ffffff;fill-opacity:1;fill-rule:nonzero;stroke:none"
             transform="translate(621.28229,52)"><tspan
               id="tspan138"
               y="0"
               x="0 7.464798 15.942673 19.448456 25.180359 33.418289 37.57724 41.083023 48.187912 56.665787 63.770676">30 Jul 2026</tspan></text>
<text
             id="text144"
             style="font-variant:normal;font-weight:bold;font-size:13.32999992px;font-family:Lora;-inkscape-font-specification:Lora-Bold;writing-mode:lr-tb;fill:#ffffff;fill-opacity:1;fill-rule:nonzero;stroke:none"
             transform="translate(743.81525,52)"><tspan
               id="tspan142"
               y="0"
               x="0 7.464798 12.87677 16.382553 22.114456 30.352386 34.511337 38.01712 45.122009 53.599884 60.704773">31 Jul 2026</tspan></text>
<text
             id="text148"
             style="font-variant:normal;font-weight:bold;font-size:13.32999992px;font-family:Lora;-inkscape-font-specification:Lora-Bold;writing-mode:lr-tb;fill:#ffffff;fill-opacity:1;fill-rule:nonzero;stroke:none"
             transform="translate(865.46838,52)"><tspan
               id="tspan146"
               y="0"
               x="0 5.411972 8.9177551 17.542267 25.780197 33.205002 36.710785 43.815674 52.293549 59.398438">1 Aug 2026</tspan></text>
<text
             id="text152"
             style="font-variant:normal;font-weight:bold;font-size:13.32999992px;font-family:Lora;-inkscape-font-specification:Lora-Bold;writing-mode:lr-tb;fill:#ffffff;fill-opacity:1;fill-rule:nonzero;stroke:none"
             transform="translate(985.62195,52)"><tspan
               id="tspan150"
               y="0"
               x="0 7.1048889 10.610672 19.235184 27.473114 34.897919 38.403702 45.508591 53.986465 61.091354">2 Aug 2026</tspan></text>
</g></g></g><g
       id="g154"><g
         clip-path="url(#clipPath160)"
         id="g156"><g
           transform="scale(2.9243119)"
           id="g162"><text
             id="text166"
             style="font-variant:normal;font-weight:bold;font-size:13.32999992px;font-family:Lora;-inkscape-font-specification:Lora-Bold;writing-mode:lr-tb;fill:#ffffff;fill-opacity:1;fill-rule:nonzero;stroke:none"
             transform="translate(236.91409,15)"><tspan
               id="tspan164"
               y="0"
               x="0 8.197937 13.703217 19.208496 27.219818 33.68486 37.017349 41.776154 50.360657 58.305328 65.850098 72.755035 82.325958 89.657455 97.202225 104.74699">https://docsgoog</tspan></text>
</g></g></g><g
       id="g168"><g
         clip-path="url(#clipPath174)"
         id="g170"><g
           transform="scale(2.9243119)"
           id="g176"><text
             id="text180"
             style="font-variant:normal;font-weight:normal;font-size:13.32999992px;font-family:Lora;-inkscape-font-specification:Lora-Regular;writing-mode:lr-tb;fill:#ffffff;fill-opacity:1;fill-rule:nonzero;stroke:none"
             transform="translate(35.493309,129)"><tspan
               id="tspan178"
               y="0"
               x="0 12.143631 19.941681 25.713562 33.804871 37.550598 45.641907">Morning</tspan></text>
<text
             id="text184"
             style="font-variant:normal;font-weight:normal;font-size:13.32999992px;font-family:Lora;-inkscape-font-specification:Lora-Regular;writing-mode:lr-tb;fill:#ffffff;fill-opacity:1;fill-rule:nonzero;stroke:none"
             transform="translate(30.527885,259)"><tspan
               id="tspan182"
               y="0"
               x="0 8.344574 13.010071 18.168777 25.393631 31.165512 39.256821 47.054871 54.852921">Afternoon</tspan></text>
<text
             id="text188"
             style="font-variant:normal;font-weight:normal;font-size:13.32999992px;font-family:Lora;-inkscape-font-specification:Lora-Regular;writing-mode:lr-tb;fill:#ffffff;fill-opacity:1;fill-rule:nonzero;stroke:none"
             transform="translate(37.319519,374)"><tspan
               id="tspan186"
               y="0"
               x="0 8.1712952 14.836288 22.061142 30.152451 33.898178 41.989487">Evening</tspan></text>
<text
             id="text192"
             style="font-variant:normal;font-weight:normal;font-size:14.65999985px;font-family:Lora;-inkscape-font-specification:Lora-Regular;writing-mode:lr-tb;fill:#000000;fill-opacity:1;fill-rule:nonzero;stroke:none"
             transform="translate(147.20575,129)"><tspan
               id="tspan190"
               y="0"
               x="0 9.1771545 15.524933 21.872711 25.992157 33.24884 40.8134 44.800919">Arrivals</tspan></text>
<text
             id="text196"
             style="font-variant:normal;font-weight:normal;font-size:14.65999985px;font-family:Lora;-inkscape-font-specification:Lora-Regular;writing-mode:lr-tb;fill:#000000;fill-opacity:1;fill-rule:nonzero;stroke:none"
             transform="translate(264.81931,120)"><tspan
               id="tspan194"
               y="0"
               x="0 11.64003 20.392044 28.337753 37.236359 41.355804 50.25441">Opening</tspan></text>
<text
             id="text200"
             style="font-variant:normal;font-weight:normal;font-size:14.65999985px;font-family:Lora;-inkscape-font-specification:Lora-Regular;writing-mode:lr-tb;fill:#000000;fill-opacity:1;fill-rule:nonzero;stroke:none"
             transform="translate(258.69873,138)"><tspan
               id="tspan198"
               y="0"
               x="0 10.24733 18.193039 24.438202 32.383911 45.489944 54.06604 62.86203">Ceremony</tspan></text>
<text
             id="text204"
             style="font-variant:normal;font-weight:normal;font-size:14.65999985px;font-family:Lora;-inkscape-font-specification:Lora-Regular;writing-mode:lr-tb;fill:#000000;fill-opacity:1;fill-rule:nonzero;stroke:none"
             transform="translate(381.41397,185)"><tspan
               id="tspan202"
               y="0"
               x="0 4.793808 13.692413 22.459091 26.578537 33.981827 38.101273 46.86795 55.619965 63.184525">Individual</tspan></text>
<text
             id="text208"
             style="font-variant:normal;font-weight:normal;font-size:14.65999985px;font-family:Lora;-inkscape-font-specification:Lora-Regular;writing-mode:lr-tb;fill:#000000;fill-opacity:1;fill-rule:nonzero;stroke:none"
             transform="translate(388.16492,203)"><tspan
               id="tspan206"
               y="0"
               x="0 10.24733 18.823425 27.590088 33.263504 41.209213 47.99678">Contest</tspan></text>
<text
             id="text212"
             style="font-variant:normal;font-weight:normal;font-size:14.65999985px;font-family:Lora;-inkscape-font-specification:Lora-Regular;writing-mode:lr-tb;fill:#000000;fill-opacity:1;fill-rule:nonzero;stroke:none"
             transform="translate(503.87994,194)"><tspan
               id="tspan210"
               y="0"
               x="0 10.24733 14.601334 20.304077 28.044556 31.900131 40.564194 49.140289 57.892303">City Tour</tspan></text>
<text
             id="text216"
             style="font-variant:normal;font-weight:normal;font-size:14.65999985px;font-family:Lora;-inkscape-font-specification:Lora-Regular;writing-mode:lr-tb;fill:#000000;fill-opacity:1;fill-rule:nonzero;stroke:none"
             transform="translate(609.61157,129)"><tspan
               id="tspan214"
               y="0"
               x="0 8.6640625 16.580444 24.145004 37.251038 41.106613 51.353943 59.930038 68.696701 74.370117 82.315826 89.103394">Team Contest</tspan></text>
<text
             id="text220"
             style="font-variant:normal;font-weight:normal;font-size:14.65999985px;font-family:Lora;-inkscape-font-specification:Lora-Regular;writing-mode:lr-tb;fill:#000000;fill-opacity:1;fill-rule:nonzero;stroke:none"
             transform="translate(743.95221,244)"><tspan
               id="tspan218"
               y="0"
               x="0 9.118515 16.815002 24.61412 33.366135 39.713913 46.50148 50.620926 59.197021">Excursion</tspan></text>
<text
             id="text224"
             style="font-variant:normal;font-weight:normal;font-size:14.65999985px;font-family:Lora;-inkscape-font-specification:Lora-Regular;writing-mode:lr-tb;fill:#000000;fill-opacity:1;fill-rule:nonzero;stroke:none"
             transform="translate(867.15851,120)"><tspan
               id="tspan222"
               y="0"
               x="0 8.3122101 16.888306 20.875824 29.627838 35.301254 39.4207 47.996796 56.895401">Solutions</tspan></text>
<text
             id="text228"
             style="font-variant:normal;font-weight:normal;font-size:14.65999985px;font-family:Lora;-inkscape-font-specification:Lora-Regular;writing-mode:lr-tb;fill:#000000;fill-opacity:1;fill-rule:nonzero;stroke:none"
             transform="translate(855.51117,138)"><tspan
               id="tspan226"
               y="0"
               x="0 8.8839569 15.12912 23.074829 29.862396 37.808105 46.574768 52.248184 59.710129 65.383545 69.502991 78.079086">Presentation</tspan></text>
<text
             id="text232"
             style="font-variant:normal;font-weight:normal;font-size:14.65999985px;font-family:Lora;-inkscape-font-specification:Lora-Regular;writing-mode:lr-tb;fill:#000000;fill-opacity:1;fill-rule:nonzero;stroke:none"
             transform="translate(981.4809,244)"><tspan
               id="tspan230"
               y="0"
               x="0 10.921692 18.867401 27.619415 35.183975 41.634369 47.307785 56.059799 62.304962 70.250671">Departures</tspan></text>
<text
             id="text236"
             style="font-variant:normal;font-weight:normal;font-size:14.65999985px;font-family:Lora;-inkscape-font-specification:Lora-Regular;writing-mode:lr-tb;fill:#000000;fill-opacity:1;fill-rule:nonzero;stroke:none"
             transform="translate(124.44613,300)"><tspan
               id="tspan234"
               y="0"
               x="0 9.1038513 17.049561 25.508377 29.627823 36.41539 42.088806 48.333969 55.795914 61.46933 65.588776 74.164871 83.063477 86.919052">Registration &amp;</tspan></text>
<text
             id="text240"
             style="font-variant:normal;font-weight:normal;font-size:14.65999985px;font-family:Lora;-inkscape-font-specification:Lora-Regular;writing-mode:lr-tb;fill:#000000;fill-opacity:1;fill-rule:nonzero;stroke:none"
             transform="translate(122.43771,318)"><tspan
               id="tspan238"
               y="0"
               x="0 11.112274 19.68837 25.361786 33.307495 37.295013 41.150589 48.949707 57.731033 65.603439 73.402557 80.93779 88.106522 92.225967">Hotel check-in</tspan></text>
<text
             id="text244"
             style="font-variant:normal;font-weight:normal;font-size:14.65999985px;font-family:Lora;-inkscape-font-specification:Lora-Regular;writing-mode:lr-tb;fill:#000000;fill-opacity:1;fill-rule:nonzero;stroke:none"
             transform="translate(262.51038,259)"><tspan
               id="tspan242"
               y="0"
               x="0 9.1771545 16.902969 22.576385 26.695831 34.099121 38.453125 44.126541 48.245987 56.191696">Activities</tspan></text>
<text
             id="text248"
             style="font-variant:normal;font-weight:normal;font-size:14.65999985px;font-family:Lora;-inkscape-font-specification:Lora-Regular;writing-mode:lr-tb;fill:#000000;fill-opacity:1;fill-rule:nonzero;stroke:none"
             transform="translate(625.51038,259)"><tspan
               id="tspan246"
               y="0"
               x="0 9.1771545 16.902969 22.576385 26.695831 34.099121 38.453125 44.126541 48.245987 56.191696">Activities</tspan></text>
<text
             id="text252"
             style="font-variant:normal;font-weight:normal;font-size:14.65999985px;font-family:Lora;-inkscape-font-specification:Lora-Regular;writing-mode:lr-tb;fill:#000000;fill-opacity:1;fill-rule:nonzero;stroke:none"
             transform="translate(873.63824,250)"><tspan
               id="tspan250"
               y="0"
               x="0 10.24733 14.234848 22.810944 29.598511 33.717957 42.616562">Closing</tspan></text>
<text
             id="text256"
             style="font-variant:normal;font-weight:normal;font-size:14.65999985px;font-family:Lora;-inkscape-font-specification:Lora-Regular;writing-mode:lr-tb;fill:#000000;fill-opacity:1;fill-rule:nonzero;stroke:none"
             transform="translate(863.69873,268)"><tspan
               id="tspan254"
               y="0"
               x="0 10.24733 18.193039 24.438202 32.383911 45.489944 54.06604 62.86203">Ceremony</tspan></text>
<text
             id="text260"
             style="font-variant:normal;font-weight:normal;font-size:14.65999985px;font-family:Lora;-inkscape-font-specification:Lora-Regular;writing-mode:lr-tb;fill:#000000;fill-opacity:1;fill-rule:nonzero;stroke:none"
             transform="translate(261.67474,374)"><tspan
               id="tspan258"
               y="0"
               x="0 7.8870697 14.132233 22.004639 29.950348 33.805923 39.47934 43.598785 56.704819">Free time</tspan></text>
<text
             id="text264"
             style="font-variant:normal;font-weight:normal;font-size:14.65999985px;font-family:Lora;-inkscape-font-specification:Lora-Regular;writing-mode:lr-tb;fill:#000000;fill-opacity:1;fill-rule:nonzero;stroke:none"
             transform="translate(363.30154,374)"><tspan
               id="tspan262"
               y="0"
               x="0 14.014954 21.960663 25.948181 33.673996 42.250092 55.356125 63.301834 67.15741 75.938751 83.503311 89.953705 95.656448">Welcome Party</tspan></text>
<text
             id="text268"
             style="font-variant:normal;font-weight:normal;font-size:14.65999985px;font-family:Lora;-inkscape-font-specification:Lora-Regular;writing-mode:lr-tb;fill:#000000;fill-opacity:1;fill-rule:nonzero;stroke:none"
             transform="translate(503.67474,374)"><tspan
               id="tspan266"
               y="0"
               x="0 7.8870697 14.132233 22.004639 29.950348 33.805923 39.47934 43.598785 56.704819">Free time</tspan></text>
<text
             id="text272"
             style="font-variant:normal;font-weight:normal;font-size:14.65999985px;font-family:Lora;-inkscape-font-specification:Lora-Regular;writing-mode:lr-tb;fill:#000000;fill-opacity:1;fill-rule:nonzero;stroke:none"
             transform="translate(626.66113,374)"><tspan
               id="tspan270"
               y="0"
               x="0 5.2482758 13.120682 21.696777 30.448792 38.013351 44.258514 52.937225">Jeopardy</tspan></text>
<text
             id="text276"
             style="font-variant:normal;font-weight:normal;font-size:14.65999985px;font-family:Lora;-inkscape-font-specification:Lora-Regular;writing-mode:lr-tb;fill:#000000;fill-opacity:1;fill-rule:nonzero;stroke:none"
             transform="translate(850.63666,374)"><tspan
               id="tspan274"
               y="0"
               x="0 7.4472809 15.011841 21.257004 29.144073 40.710815 48.656525 52.644043 56.631561 60.487137 69.268478 76.833038 83.283432 88.986176">Farewell Party</tspan></text>
</g></g></g></g></svg>