<?xml version="1.0" encoding="UTF-8"?>
<!DOCTYPE svg PUBLIC "-//W3C//DTD SVG 1.1//EN" "http://www.w3.org/Graphics/SVG/1.1/DTD/svg11.dtd">
<svg version="1.2" width="72.09mm" height="78.8mm" viewBox="0 0 7209 7880" preserveAspectRatio="xMidYMid" fill-rule="evenodd" stroke-width="28.222" stroke-linejoin="round" xmlns="http://www.w3.org/2000/svg" xmlns:ooo="http://xml.openoffice.org/svg/export" xmlns:xlink="http://www.w3.org/1999/xlink" xmlns:presentation="http://sun.com/xmlns/staroffice/presentation" xmlns:smil="http://www.w3.org/2001/SMIL20/" xmlns:anim="urn:oasis:names:tc:opendocument:xmlns:animation:1.0" xmlns:svg="urn:oasis:names:tc:opendocument:xmlns:svg-compatible:1.0" xml:space="preserve">
 <defs class="ClipPathGroup">
  <clipPath id="presentation_clip_path" clipPathUnits="userSpaceOnUse">
   <rect x="0" y="0" width="7209" height="7880"/>
  </clipPath>
  <clipPath id="presentation_clip_path_shrink" clipPathUnits="userSpaceOnUse">
   <rect x="7" y="7" width="7195" height="7865"/>
  </clipPath>
 </defs>
 <defs class="TextShapeIndex">
  <g ooo:slide="id1" ooo:id-list="id3 id4 id5 id6 id7 id8 id9 id10 id11 id12 id13 id14 id15 id16 id17 id18 id19 id20 id21 id22 id23 id24 id25 id26 id27 id28 id29 id30 id31 id32 id33 id34 id35 id36 id37 id38 id39 id40 id41 id42 id43 id44 id45 id46 id47 id48 id49 id50 id51 id52 id53 id54 id55 id56 id57 id58 id59 id60 id61 id62 id63 id64 id65 id66 id67 id68 id69 id70 id71 id72 id73 id74 id75 id76 id77 id78 id79 id80 id81 id82 id83 id84 id85 id86 id87 id88 id89 id90 id91 id92 id93 id94 id95 id96 id97"/>
 </defs>
 <defs class="EmbeddedBulletChars">
  <g id="bullet-char-template-57356" transform="scale(0.00048828125,-0.00048828125)">
   <path d="M 580,1141 L 1163,571 580,0 -4,571 580,1141 Z"/>
  </g>
  <g id="bullet-char-template-57354" transform="scale(0.00048828125,-0.00048828125)">
   <path d="M 8,1128 L 1137,1128 1137,0 8,0 8,1128 Z"/>
  </g>
  <g id="bullet-char-template-10146" transform="scale(0.00048828125,-0.00048828125)">
   <path d="M 174,0 L 602,739 174,1481 1456,739 174,0 Z M 1358,739 L 309,1346 659,739 1358,739 Z"/>
  </g>
  <g id="bullet-char-template-10132" transform="scale(0.00048828125,-0.00048828125)">
   <path d="M 2015,739 L 1276,0 717,0 1260,543 174,543 174,936 1260,936 717,1481 1274,1481 2015,739 Z"/>
  </g>
  <g id="bullet-char-template-10007" transform="scale(0.00048828125,-0.00048828125)">
   <path d="M 0,-2 C -7,14 -16,27 -25,37 L 356,567 C 262,823 215,952 215,954 215,979 228,992 255,992 264,992 276,990 289,987 310,991 331,999 354,1012 L 381,999 492,748 772,1049 836,1024 860,1049 C 881,1039 901,1025 922,1006 886,937 835,863 770,784 769,783 710,716 594,584 L 774,223 C 774,196 753,168 711,139 L 727,119 C 717,90 699,76 672,76 641,76 570,178 457,381 L 164,-76 C 142,-110 111,-127 72,-127 30,-127 9,-110 8,-76 1,-67 -2,-52 -2,-32 -2,-23 -1,-13 0,-2 Z"/>
  </g>
  <g id="bullet-char-template-10004" transform="scale(0.00048828125,-0.00048828125)">
   <path d="M 285,-33 C 182,-33 111,30 74,156 52,228 41,333 41,471 41,549 55,616 82,672 116,743 169,778 240,778 293,778 328,747 346,684 L 369,508 C 377,444 397,411 428,410 L 1163,1116 C 1174,1127 1196,1133 1229,1133 1271,1133 1292,1118 1292,1087 L 1292,965 C 1292,929 1282,901 1262,881 L 442,47 C 390,-6 338,-33 285,-33 Z"/>
  </g>
  <g id="bullet-char-template-9679" transform="scale(0.00048828125,-0.00048828125)">
   <path d="M 813,0 C 632,0 489,54 383,161 276,268 223,411 223,592 223,773 276,916 383,1023 489,1130 632,1184 813,1184 992,1184 1136,1130 1245,1023 1353,916 1407,772 1407,592 1407,412 1353,268 1245,161 1136,54 992,0 813,0 Z"/>
  </g>
  <g id="bullet-char-template-8226" transform="scale(0.00048828125,-0.00048828125)">
   <path d="M 346,457 C 273,457 209,483 155,535 101,586 74,649 74,723 74,796 101,859 155,911 209,963 273,989 346,989 419,989 480,963 531,910 582,859 608,796 608,723 608,648 583,586 532,535 482,483 420,457 346,457 Z"/>
  </g>
  <g id="bullet-char-template-8211" transform="scale(0.00048828125,-0.00048828125)">
   <path d="M -4,459 L 1135,459 1135,606 -4,606 -4,459 Z"/>
  </g>
  <g id="bullet-char-template-61548" transform="scale(0.00048828125,-0.00048828125)">
   <path d="M 173,740 C 173,903 231,1043 346,1159 462,1274 601,1332 765,1332 928,1332 1067,1274 1183,1159 1299,1043 1357,903 1357,740 1357,577 1299,437 1183,322 1067,206 928,148 765,148 601,148 462,206 346,322 231,437 173,577 173,740 Z"/>
  </g>
 </defs>
 <g>
  <g id="id2" class="Master_Slide">
   <g id="bg-id2" class="Background"/>
   <g id="bo-id2" class="BackgroundObjects"/>
  </g>
 </g>
 <g class="SlideGroup">
  <g>
   <g id="container-id1">
    <g id="id1" class="Slide" clip-path="url(#presentation_clip_path)">
     <g class="Page">
      <defs class="SlideBackground">
       <g id="bg-id1" class="Background">
        <path fill="rgb(255,255,255)" stroke="none" d="M 3591,7866 L -13,7866 -13,-13 7195,-13 7195,7866 3591,7866 Z "/>
       </g>
      </defs>
      <g class="com.sun.star.drawing.ClosedBezierShape">
       <g id="id3">
        <rect class="BoundingBox" stroke="none" fill="none" x="4953" y="3293" width="802" height="1010"/>
        <path fill="rgb(0,105,180)" stroke="none" d="M 5636,3976 C 5589,4023 5526,4048 5460,4048 5323,4048 5212,3937 5212,3800 5212,3663 5323,3552 5460,3552 5526,3552 5588,3577 5635,3624 L 5641,3630 5754,3389 5750,3385 C 5664,3325 5564,3293 5459,3293 5180,3293 4954,3519 4954,3798 4954,4076 5180,4302 5459,4302 5563,4302 5664,4270 5749,4210 L 5753,4207 5642,3970 5636,3976 Z "/>
       </g>
      </g>
      <g class="com.sun.star.drawing.ClosedBezierShape">
       <g id="id4">
        <rect class="BoundingBox" stroke="none" fill="none" x="5846" y="3295" width="1008" height="1008"/>
        <path fill="rgb(0,105,180)" stroke="none" d="M 6102,3801 C 6102,3664 6213,3553 6350,3553 6486,3553 6598,3664 6598,3801 6598,3938 6486,4049 6350,4049 6213,4049 6102,3938 6102,3801 Z M 5846,3799 C 5846,4076 6071,4302 6349,4302 6627,4302 6853,4076 6853,3799 6853,3520 6627,3295 6349,3295 6071,3295 5846,3520 5846,3799 Z "/>
       </g>
      </g>
      <g class="com.sun.star.drawing.ClosedBezierShape">
       <g id="id5">
        <rect class="BoundingBox" stroke="none" fill="none" x="4046" y="3293" width="793" height="1008"/>
        <path fill="rgb(0,105,180)" stroke="none" d="M 4680,3567 C 4633,3539 4572,3513 4513,3513 4481,3513 4445,3522 4426,3541 4415,3552 4407,3569 4407,3584 4407,3605 4422,3617 4436,3626 4458,3639 4489,3645 4527,3658 L 4608,3683 C 4661,3700 4716,3721 4764,3765 4819,3816 4838,3873 4838,3945 4838,4070 4783,4150 4741,4193 4648,4286 4534,4300 4434,4300 4306,4300 4169,4273 4046,4165 L 4175,3960 C 4205,3985 4247,4015 4279,4030 4321,4051 4367,4059 4407,4059 4426,4059 4475,4059 4502,4038 4521,4023 4534,4000 4534,3977 4534,3960 4527,3939 4500,3922 4479,3909 4451,3901 4407,3888 L 4330,3865 C 4275,3848 4218,3818 4178,3778 4133,3732 4110,3679 4110,3607 4110,3515 4146,3439 4201,3388 4285,3310 4401,3293 4487,3293 4627,3293 4724,3329 4800,3373 L 4680,3567 Z "/>
       </g>
      </g>
      <g class="com.sun.star.drawing.ClosedBezierShape">
       <g id="id6">
        <rect class="BoundingBox" stroke="none" fill="none" x="499" y="3325" width="971" height="976"/>
        <path fill="rgb(0,105,180)" stroke="none" d="M 804,3325 L 804,3846 C 804,3888 808,3954 857,3998 878,4017 916,4043 984,4043 1041,4043 1085,4023 1113,3998 1157,3956 1163,3892 1163,3846 L 1163,3325 1469,3325 1469,3875 C 1469,3983 1458,4085 1362,4178 1254,4284 1096,4300 984,4300 867,4300 711,4284 603,4178 516,4093 499,3998 499,3895 L 499,3325 804,3325 Z "/>
       </g>
      </g>
      <g class="com.sun.star.drawing.ClosedBezierShape">
       <g id="id7">
        <rect class="BoundingBox" stroke="none" fill="none" x="1705" y="3299" width="964" height="971"/>
        <path fill="rgb(0,105,180)" stroke="none" d="M 1705,3325 L 2009,3325 2009,3438 C 2102,3318 2212,3299 2301,3299 2383,3299 2492,3314 2573,3396 2661,3484 2668,3596 2668,3672 L 2668,4269 2362,4269 2362,3785 C 2362,3723 2360,3645 2311,3596 2288,3573 2250,3554 2195,3554 2132,3554 2092,3579 2068,3605 2018,3656 2009,3723 2009,3785 L 2009,4269 1705,4269 1705,3325 Z "/>
       </g>
      </g>
      <g class="com.sun.star.drawing.ClosedBezierShape">
       <g id="id8">
        <rect class="BoundingBox" stroke="none" fill="none" x="2898" y="3293" width="1015" height="1008"/>
        <path fill="rgb(0,105,180)" stroke="none" d="M 3631,3668 C 3629,3660 3614,3601 3570,3558 3535,3527 3486,3504 3425,3504 3347,3504 3300,3537 3270,3567 3247,3592 3226,3626 3218,3668 L 3631,3668 Z M 3912,3850 L 3207,3850 C 3207,3901 3226,3968 3264,4011 3311,4062 3374,4070 3421,4070 3465,4070 3512,4062 3544,4042 3548,4040 3584,4017 3610,3964 L 3897,3994 C 3855,4127 3771,4197 3716,4231 3625,4286 3522,4300 3416,4300 3275,4300 3150,4275 3040,4165 2958,4083 2898,3958 2898,3801 2898,3666 2947,3527 3042,3428 3156,3314 3298,3293 3404,3293 3509,3293 3663,3312 3779,3435 3891,3554 3912,3702 3912,3818 L 3912,3850 Z "/>
       </g>
      </g>
      <g class="com.sun.star.drawing.PolyPolygonShape">
       <g id="id9">
        <rect class="BoundingBox" stroke="none" fill="none" x="499" y="499" width="6212" height="2266"/>
        <path fill="rgb(0,105,180)" stroke="none" d="M 499,2764 L 6710,2764 6710,499 499,499 499,2764 Z M 3606,563 L 6649,563 6649,2700 3606,2700 3606,563 Z "/>
       </g>
      </g>
      <g class="com.sun.star.drawing.PolyPolygonShape">
       <g id="id10">
        <rect class="BoundingBox" stroke="none" fill="none" x="1317" y="2045" width="1472" height="63"/>
        <path fill="rgb(255,255,255)" stroke="none" d="M 1317,2045 L 2788,2045 2788,2107 1317,2107 1317,2045 Z "/>
       </g>
      </g>
      <g class="com.sun.star.drawing.PolyPolygonShape">
       <g id="id11">
        <rect class="BoundingBox" stroke="none" fill="none" x="1234" y="2148" width="1635" height="65"/>
        <path fill="rgb(255,255,255)" stroke="none" d="M 1234,2149 L 2868,2149 2868,2212 1234,2212 1234,2149 Z "/>
       </g>
      </g>
      <g class="com.sun.star.drawing.PolyPolygonShape">
       <g id="id12">
        <rect class="BoundingBox" stroke="none" fill="none" x="1156" y="2254" width="1793" height="65"/>
        <path fill="rgb(255,255,255)" stroke="none" d="M 1157,2254 L 2948,2254 2948,2317 1157,2317 1157,2254 Z "/>
       </g>
      </g>
      <g class="com.sun.star.drawing.PolyPolygonShape">
       <g id="id13">
        <rect class="BoundingBox" stroke="none" fill="none" x="1317" y="1268" width="1472" height="64"/>
        <path fill="rgb(255,255,255)" stroke="none" d="M 1317,1268 L 2788,1268 2788,1331 1317,1331 1317,1268 Z "/>
       </g>
      </g>
      <g class="com.sun.star.drawing.PolyPolygonShape">
       <g id="id14">
        <rect class="BoundingBox" stroke="none" fill="none" x="1435" y="1040" width="1226" height="190"/>
        <path fill="rgb(255,255,255)" stroke="none" d="M 1615,1229 L 2052,1097 2481,1229 2660,1229 2052,1040 1436,1229 1615,1229 Z "/>
       </g>
      </g>
      <g class="com.sun.star.drawing.PolyPolygonShape">
       <g id="id15">
        <rect class="BoundingBox" stroke="none" fill="none" x="1317" y="936" width="1472" height="294"/>
        <path fill="rgb(255,255,255)" stroke="none" d="M 2051,936 L 1317,1163 1317,1229 2051,1005 2788,1229 2788,1163 2051,936 Z "/>
       </g>
      </g>
      <g class="com.sun.star.drawing.ClosedBezierShape">
       <g id="id16">
        <rect class="BoundingBox" stroke="none" fill="none" x="1404" y="1367" width="104" height="647"/>
        <path fill="rgb(255,255,255)" stroke="none" d="M 1404,1966 C 1404,1966 1404,2012 1456,2012 1509,2012 1506,1966 1506,1966 L 1506,1367 1468,1367 1468,1967 C 1468,1967 1468,1978 1453,1978 1439,1978 1442,1964 1442,1964 L 1442,1367 1404,1367 1404,1966 Z "/>
       </g>
      </g>
      <g class="com.sun.star.drawing.PolyPolygonShape">
       <g id="id17">
        <rect class="BoundingBox" stroke="none" fill="none" x="1644" y="1367" width="105" height="646"/>
        <path fill="rgb(255,255,255)" stroke="none" d="M 1645,2012 L 1677,2012 1677,1625 1716,2012 1748,2012 1748,1367 1716,1367 1716,1712 1677,1367 1645,1367 1645,2012 Z "/>
       </g>
      </g>
      <g class="com.sun.star.drawing.PolyPolygonShape">
       <g id="id18">
        <rect class="BoundingBox" stroke="none" fill="none" x="1890" y="1367" width="102" height="646"/>
        <path fill="rgb(255,255,255)" stroke="none" d="M 1890,2012 L 1990,2012 1990,1978 1934,1978 1934,1687 1976,1687 1976,1652 1934,1652 1934,1400 1976,1400 1976,1367 1890,1367 1890,2012 Z "/>
       </g>
      </g>
      <g class="com.sun.star.drawing.ClosedBezierShape">
       <g id="id19">
        <rect class="BoundingBox" stroke="none" fill="none" x="2356" y="1367" width="104" height="647"/>
        <path fill="rgb(255,255,255)" stroke="none" d="M 2458,1558 L 2458,1413 C 2458,1413 2456,1367 2406,1367 2357,1367 2357,1413 2357,1413 L 2357,1966 C 2357,1966 2355,2012 2406,2012 2458,2012 2458,1966 2458,1966 L 2458,1804 2419,1804 2419,1966 C 2419,1966 2419,1978 2406,1978 2395,1978 2392,1966 2392,1966 L 2392,1413 C 2392,1413 2392,1400 2406,1400 2419,1400 2419,1413 2419,1413 L 2419,1558 2458,1558 Z "/>
       </g>
      </g>
      <g class="com.sun.star.drawing.ClosedBezierShape">
       <g id="id20">
        <rect class="BoundingBox" stroke="none" fill="none" x="2597" y="1367" width="108" height="646"/>
        <path fill="rgb(255,255,255)" stroke="none" d="M 2703,1413 C 2703,1413 2706,1367 2651,1367 2597,1367 2597,1413 2597,1413 L 2597,1966 C 2597,1966 2597,2012 2648,2012 2703,2012 2703,1966 2703,1966 L 2703,1413 Z M 2666,1966 C 2666,1966 2668,1978 2651,1978 2636,1978 2636,1966 2636,1966 L 2636,1413 C 2636,1413 2636,1400 2650,1400 2666,1400 2666,1413 2666,1413 L 2666,1966 Z "/>
       </g>
      </g>
      <g class="com.sun.star.drawing.ClosedBezierShape">
       <g id="id21">
        <rect class="BoundingBox" stroke="none" fill="none" x="2115" y="1366" width="103" height="648"/>
        <path fill="rgb(255,255,255)" stroke="none" d="M 2176,1966 C 2176,1966 2176,1978 2166,1977 2156,1977 2156,1966 2156,1966 L 2156,1804 2115,1804 2115,1966 C 2115,1966 2114,2012 2165,2012 2216,2012 2216,1966 2216,1966 2216,1966 2216,1858 2216,1826 2216,1751 2156,1606 2156,1558 L 2156,1413 C 2156,1413 2155,1400 2165,1400 2176,1400 2176,1413 2176,1413 L 2176,1558 2216,1558 2216,1413 C 2216,1413 2218,1366 2167,1367 2115,1369 2115,1413 2115,1413 L 2115,1537 C 2115,1618 2176,1755 2176,1817 L 2176,1966 Z "/>
       </g>
      </g>
      <g class="com.sun.star.drawing.ClosedBezierShape">
       <g id="id22">
        <rect class="BoundingBox" stroke="none" fill="none" x="498" y="4718" width="310" height="407"/>
        <path fill="rgb(0,105,180)" stroke="none" d="M 498,5123 L 498,4718 579,4718 679,4891 C 705,4936 727,4983 745,5027 L 746,5027 C 742,4973 740,4920 740,4859 L 740,4718 807,4718 807,5123 733,5123 631,4944 C 606,4900 581,4850 562,4805 L 560,4805 C 563,4857 563,4911 563,4977 L 563,5123 498,5123 Z "/>
       </g>
      </g>
      <g class="com.sun.star.drawing.ClosedBezierShape">
       <g id="id23">
        <rect class="BoundingBox" stroke="none" fill="none" x="856" y="4823" width="245" height="307"/>
        <path fill="rgb(0,105,180)" stroke="none" d="M 1026,4979 C 975,4978 928,4989 928,5035 928,5064 946,5077 968,5077 996,5077 1017,5058 1023,5037 1025,5030 1026,5024 1026,5019 L 1026,4979 Z M 1035,5123 L 1030,5091 1028,5091 C 1011,5113 982,5129 946,5129 889,5129 857,5087 857,5043 857,4968 920,4931 1024,4931 L 1024,4926 C 1024,4907 1016,4875 967,4875 939,4875 910,4884 891,4897 L 878,4849 C 898,4836 935,4823 979,4823 1069,4823 1096,4883 1096,4946 L 1096,5053 C 1096,5079 1097,5105 1100,5123 L 1035,5123 Z "/>
       </g>
      </g>
      <g class="com.sun.star.drawing.ClosedBezierShape">
       <g id="id24">
        <rect class="BoundingBox" stroke="none" fill="none" x="1127" y="4747" width="180" height="384"/>
        <path fill="rgb(0,105,180)" stroke="none" d="M 1238,4747 L 1238,4831 1306,4831 1306,4886 1238,4886 1238,5015 C 1238,5050 1248,5069 1275,5069 1287,5069 1296,5067 1302,5065 L 1304,5122 C 1293,5126 1275,5129 1252,5129 1226,5129 1204,5120 1191,5105 1176,5088 1169,5062 1169,5023 L 1169,4886 1128,4886 1128,4831 1169,4831 1169,4765 1238,4747 Z "/>
       </g>
      </g>
      <g class="com.sun.star.drawing.ClosedBezierShape">
       <g id="id25">
        <rect class="BoundingBox" stroke="none" fill="none" x="1342" y="4708" width="81" height="416"/>
        <path fill="rgb(0,105,180)" stroke="none" d="M 1346,4831 L 1418,4831 1418,5123 1346,5123 1346,4831 Z M 1381,4789 C 1357,4789 1342,4772 1342,4748 1342,4726 1358,4708 1381,4708 1407,4708 1422,4726 1422,4748 1422,4772 1407,4789 1381,4789 Z "/>
       </g>
      </g>
      <g class="com.sun.star.drawing.ClosedBezierShape">
       <g id="id26">
        <rect class="BoundingBox" stroke="none" fill="none" x="1465" y="4823" width="287" height="307"/>
        <path fill="rgb(0,105,180)" stroke="none" d="M 1609,5076 C 1649,5076 1677,5035 1677,4975 1677,4929 1658,4877 1609,4877 1558,4877 1538,4928 1538,4976 1538,5034 1565,5076 1609,5076 Z M 1606,5129 C 1526,5129 1465,5073 1465,4978 1465,4882 1525,4823 1611,4823 1694,4823 1750,4884 1750,4973 1750,5082 1678,5129 1606,5129 Z "/>
       </g>
      </g>
      <g class="com.sun.star.drawing.ClosedBezierShape">
       <g id="id27">
        <rect class="BoundingBox" stroke="none" fill="none" x="1795" y="4823" width="259" height="301"/>
        <path fill="rgb(0,105,180)" stroke="none" d="M 1798,4918 C 1798,4883 1797,4855 1795,4830 L 1857,4830 1861,4874 1863,4874 C 1875,4851 1905,4823 1953,4823 2002,4823 2053,4856 2053,4950 L 2053,5123 1982,5123 1982,4958 C 1982,4915 1967,4883 1928,4883 1899,4883 1879,4904 1872,4927 1870,4934 1869,4943 1869,4951 L 1869,5123 1798,5123 1798,4918 Z "/>
       </g>
      </g>
      <g class="com.sun.star.drawing.ClosedBezierShape">
       <g id="id28">
        <rect class="BoundingBox" stroke="none" fill="none" x="2097" y="4823" width="243" height="307"/>
        <path fill="rgb(0,105,180)" stroke="none" d="M 2265,4979 C 2215,4978 2167,4989 2167,5035 2167,5064 2185,5077 2208,5077 2236,5077 2256,5058 2263,5037 2265,5030 2265,5024 2265,5019 L 2265,4979 Z M 2274,5123 L 2270,5091 2268,5091 C 2251,5113 2221,5129 2185,5129 2129,5129 2097,5087 2097,5043 2097,4968 2160,4931 2263,4931 L 2263,4926 C 2263,4907 2256,4875 2206,4875 2179,4875 2150,4884 2131,4897 L 2117,4849 C 2138,4836 2174,4823 2218,4823 2309,4823 2335,4883 2335,4946 L 2335,5053 C 2335,5079 2336,5105 2339,5123 L 2274,5123 Z "/>
       </g>
      </g>
      <g class="com.sun.star.drawing.PolyPolygonShape">
       <g id="id29">
        <rect class="BoundingBox" stroke="none" fill="none" x="2398" y="4696" width="73" height="428"/>
        <path fill="rgb(0,105,180)" stroke="none" d="M 2398,4696 L 2470,4696 2470,5123 2398,5123 2398,4696 Z "/>
       </g>
      </g>
      <g class="com.sun.star.drawing.ClosedBezierShape">
       <g id="id30">
        <rect class="BoundingBox" stroke="none" fill="none" x="2638" y="4710" width="303" height="420"/>
        <path fill="rgb(0,105,180)" stroke="none" d="M 2937,5111 C 2920,5120 2883,5129 2836,5129 2712,5129 2638,5049 2638,4926 2638,4793 2726,4711 2845,4711 2893,4711 2926,4721 2940,4729 L 2925,4789 C 2906,4780 2881,4772 2848,4772 2769,4772 2712,4825 2712,4922 2712,5011 2762,5068 2847,5068 2877,5068 2907,5062 2925,5053 L 2937,5111 Z "/>
       </g>
      </g>
      <g class="com.sun.star.drawing.ClosedBezierShape">
       <g id="id31">
        <rect class="BoundingBox" stroke="none" fill="none" x="2958" y="4823" width="286" height="307"/>
        <path fill="rgb(0,105,180)" stroke="none" d="M 3102,5076 C 3142,5076 3170,5035 3170,4975 3170,4929 3150,4877 3102,4877 3052,4877 3032,4928 3032,4976 3032,5034 3058,5076 3102,5076 Z M 3099,5129 C 3020,5129 2958,5073 2958,4978 2958,4882 3019,4823 3104,4823 3187,4823 3243,4884 3243,4973 3243,5082 3171,5129 3099,5129 Z "/>
       </g>
      </g>
      <g class="com.sun.star.drawing.ClosedBezierShape">
       <g id="id32">
        <rect class="BoundingBox" stroke="none" fill="none" x="3288" y="4823" width="418" height="301"/>
        <path fill="rgb(0,105,180)" stroke="none" d="M 3290,4918 C 3290,4883 3290,4855 3288,4830 L 3349,4830 3352,4873 3354,4873 C 3368,4850 3393,4823 3440,4823 3477,4823 3506,4845 3518,4877 L 3519,4877 C 3530,4861 3541,4849 3555,4841 3570,4829 3588,4823 3611,4823 3658,4823 3705,4856 3705,4951 L 3705,5123 3636,5123 3636,4962 C 3636,4912 3620,4883 3586,4883 3562,4883 3544,4901 3536,4923 3534,4930 3533,4939 3533,4948 L 3533,5123 3463,5123 3463,4954 C 3463,4912 3447,4883 3414,4883 3388,4883 3370,4905 3364,4926 3361,4933 3360,4942 3360,4950 L 3360,5123 3290,5123 3290,4918 Z "/>
       </g>
      </g>
      <g class="com.sun.star.drawing.ClosedBezierShape">
       <g id="id33">
        <rect class="BoundingBox" stroke="none" fill="none" x="3766" y="4823" width="418" height="301"/>
        <path fill="rgb(0,105,180)" stroke="none" d="M 3768,4918 C 3768,4883 3768,4855 3766,4830 L 3827,4830 3830,4873 3832,4873 C 3845,4850 3871,4823 3918,4823 3956,4823 3985,4845 3997,4877 L 3998,4877 C 4008,4861 4019,4849 4033,4841 4048,4829 4066,4823 4089,4823 4136,4823 4183,4856 4183,4951 L 4183,5123 4114,5123 4114,4962 C 4114,4912 4098,4883 4064,4883 4039,4883 4022,4901 4014,4923 4012,4930 4011,4939 4011,4948 L 4011,5123 3940,5123 3940,4954 C 3940,4912 3925,4883 3892,4883 3866,4883 3848,4905 3841,4926 3839,4933 3837,4942 3837,4950 L 3837,5123 3768,5123 3768,4918 Z "/>
       </g>
      </g>
      <g class="com.sun.star.drawing.ClosedBezierShape">
       <g id="id34">
        <rect class="BoundingBox" stroke="none" fill="none" x="4242" y="4708" width="82" height="416"/>
        <path fill="rgb(0,105,180)" stroke="none" d="M 4246,4831 L 4319,4831 4319,5123 4246,5123 4246,4831 Z M 4281,4789 C 4258,4789 4242,4772 4242,4748 4242,4726 4258,4708 4282,4708 4307,4708 4322,4726 4323,4748 4323,4772 4307,4789 4281,4789 Z "/>
       </g>
      </g>
      <g class="com.sun.star.drawing.ClosedBezierShape">
       <g id="id35">
        <rect class="BoundingBox" stroke="none" fill="none" x="4365" y="4823" width="202" height="307"/>
        <path fill="rgb(0,105,180)" stroke="none" d="M 4379,5055 C 4395,5065 4426,5076 4451,5076 4483,5076 4497,5063 4497,5044 4497,5024 4486,5013 4450,5000 4395,4980 4372,4949 4373,4915 4373,4863 4414,4823 4480,4823 4511,4823 4538,4832 4554,4841 L 4540,4893 C 4528,4886 4506,4876 4481,4876 4455,4876 4441,4889 4441,4907 4441,4925 4454,4934 4491,4947 4541,4967 4565,4994 4566,5038 4566,5091 4526,5129 4451,5129 4417,5129 4386,5121 4365,5109 L 4379,5055 Z "/>
       </g>
      </g>
      <g class="com.sun.star.drawing.ClosedBezierShape">
       <g id="id36">
        <rect class="BoundingBox" stroke="none" fill="none" x="4592" y="4823" width="201" height="308"/>
        <path fill="rgb(0,105,180)" stroke="none" d="M 4606,5055 C 4622,5065 4653,5076 4679,5076 4710,5076 4724,5063 4724,5044 4724,5024 4712,5013 4678,5000 4622,4980 4599,4949 4600,4915 4600,4863 4641,4823 4707,4823 4738,4823 4765,4832 4781,4841 L 4767,4893 C 4755,4886 4733,4876 4708,4876 4682,4876 4668,4889 4668,4907 4668,4925 4682,4934 4718,4947 4768,4967 4792,4994 4792,5038 4792,5091 4753,5129 4678,5129 4643,5129 4613,5121 4592,5109 L 4606,5055 Z "/>
       </g>
      </g>
      <g class="com.sun.star.drawing.ClosedBezierShape">
       <g id="id37">
        <rect class="BoundingBox" stroke="none" fill="none" x="4834" y="4708" width="81" height="416"/>
        <path fill="rgb(0,105,180)" stroke="none" d="M 4838,4831 L 4910,4831 4910,5123 4838,5123 4838,4831 Z M 4874,4789 C 4849,4789 4834,4772 4834,4748 4834,4726 4850,4708 4875,4708 4899,4708 4914,4726 4914,4748 4914,4772 4899,4789 4874,4789 Z "/>
       </g>
      </g>
      <g class="com.sun.star.drawing.ClosedBezierShape">
       <g id="id38">
        <rect class="BoundingBox" stroke="none" fill="none" x="4957" y="4823" width="286" height="307"/>
        <path fill="rgb(0,105,180)" stroke="none" d="M 5100,5076 C 5141,5076 5169,5035 5169,4975 5169,4929 5149,4877 5101,4877 5051,4877 5031,4928 5031,4976 5031,5034 5057,5076 5100,5076 Z M 5098,5129 C 5019,5129 4957,5073 4957,4978 4957,4882 5018,4823 5103,4823 5186,4823 5242,4884 5242,4973 5242,5082 5170,5129 5098,5129 Z "/>
       </g>
      </g>
      <g class="com.sun.star.drawing.ClosedBezierShape">
       <g id="id39">
        <rect class="BoundingBox" stroke="none" fill="none" x="5287" y="4823" width="258" height="301"/>
        <path fill="rgb(0,105,180)" stroke="none" d="M 5289,4918 C 5289,4883 5289,4855 5287,4830 L 5349,4830 5353,4874 5354,4874 C 5367,4851 5397,4823 5444,4823 5493,4823 5544,4856 5544,4950 L 5544,5123 5473,5123 5473,4958 C 5473,4915 5458,4883 5419,4883 5391,4883 5371,4904 5364,4927 5361,4934 5361,4943 5361,4951 L 5361,5123 5289,5123 5289,4918 Z "/>
       </g>
      </g>
      <g class="com.sun.star.drawing.ClosedBezierShape">
       <g id="id40">
        <rect class="BoundingBox" stroke="none" fill="none" x="477" y="5458" width="287" height="308"/>
        <path fill="rgb(0,105,180)" stroke="none" d="M 620,5711 C 661,5711 689,5670 689,5610 689,5565 669,5512 621,5512 571,5512 551,5563 551,5611 551,5669 577,5711 620,5711 Z M 618,5765 C 538,5765 477,5708 477,5613 477,5517 538,5458 623,5458 706,5458 763,5520 763,5608 763,5717 689,5765 618,5765 Z "/>
       </g>
      </g>
      <g class="com.sun.star.drawing.ClosedBezierShape">
       <g id="id41">
        <rect class="BoundingBox" stroke="none" fill="none" x="781" y="5324" width="192" height="435"/>
        <path fill="rgb(0,105,180)" stroke="none" d="M 819,5758 L 819,5521 781,5521 781,5466 819,5466 819,5453 C 819,5416 829,5377 853,5353 875,5332 903,5325 927,5325 946,5325 961,5328 972,5332 L 967,5389 C 960,5386 950,5383 937,5383 902,5383 890,5415 890,5451 L 890,5466 952,5466 952,5521 891,5521 891,5758 819,5758 Z "/>
       </g>
      </g>
      <g class="com.sun.star.drawing.ClosedBezierShape">
       <g id="id42">
        <rect class="BoundingBox" stroke="none" fill="none" x="1106" y="5350" width="278" height="409"/>
        <path fill="rgb(0,105,180)" stroke="none" d="M 1176,5538 L 1218,5538 C 1267,5538 1297,5512 1297,5470 1297,5426 1267,5406 1220,5406 1198,5406 1183,5407 1176,5409 L 1176,5538 Z M 1106,5358 C 1133,5353 1172,5350 1213,5350 1270,5350 1308,5359 1334,5382 1355,5401 1367,5429 1367,5463 1367,5516 1333,5552 1297,5566 L 1297,5567 C 1325,5578 1342,5606 1351,5645 1363,5696 1374,5742 1382,5758 L 1309,5758 C 1303,5746 1294,5713 1283,5663 1272,5610 1253,5593 1212,5592 L 1176,5592 1176,5758 1106,5758 1106,5358 Z "/>
       </g>
      </g>
      <g class="com.sun.star.drawing.ClosedBezierShape">
       <g id="id43">
        <rect class="BoundingBox" stroke="none" fill="none" x="1403" y="5458" width="287" height="308"/>
        <path fill="rgb(0,105,180)" stroke="none" d="M 1546,5711 C 1587,5711 1616,5670 1616,5610 1616,5565 1596,5512 1547,5512 1496,5512 1476,5563 1476,5611 1476,5669 1503,5711 1546,5711 Z M 1544,5765 C 1464,5765 1403,5708 1403,5613 1403,5517 1464,5458 1548,5458 1633,5458 1689,5520 1689,5608 1689,5717 1616,5765 1544,5765 Z "/>
       </g>
      </g>
      <g class="com.sun.star.drawing.ClosedBezierShape">
       <g id="id44">
        <rect class="BoundingBox" stroke="none" fill="none" x="1734" y="5458" width="419" height="301"/>
        <path fill="rgb(0,105,180)" stroke="none" d="M 1736,5553 C 1736,5519 1735,5490 1734,5465 L 1795,5465 1798,5508 1799,5508 C 1813,5485 1838,5458 1887,5458 1924,5458 1952,5480 1964,5512 L 1966,5512 C 1975,5496 1987,5484 2000,5476 2016,5464 2034,5458 2057,5458 2103,5458 2151,5491 2151,5586 L 2151,5758 2081,5758 2081,5597 C 2081,5548 2065,5519 2031,5519 2007,5519 1989,5537 1982,5558 1980,5566 1978,5575 1978,5583 L 1978,5758 1909,5758 1909,5589 C 1909,5548 1894,5519 1860,5519 1833,5519 1815,5541 1809,5561 1806,5569 1805,5577 1805,5585 L 1805,5758 1736,5758 1736,5553 Z "/>
       </g>
      </g>
      <g class="com.sun.star.drawing.ClosedBezierShape">
       <g id="id45">
        <rect class="BoundingBox" stroke="none" fill="none" x="2195" y="5458" width="244" height="308"/>
        <path fill="rgb(0,105,180)" stroke="none" d="M 2364,5614 C 2314,5613 2265,5624 2265,5670 2265,5699 2283,5712 2306,5712 2335,5712 2355,5693 2362,5672 2363,5666 2364,5660 2364,5655 L 2364,5614 Z M 2373,5758 L 2369,5726 2367,5726 C 2350,5748 2320,5765 2283,5765 2226,5765 2195,5722 2195,5678 2195,5603 2258,5566 2362,5566 L 2362,5562 C 2362,5542 2355,5511 2305,5511 2277,5511 2248,5520 2229,5532 L 2215,5484 C 2236,5471 2272,5458 2317,5458 2407,5458 2433,5518 2433,5581 L 2433,5688 C 2433,5714 2434,5740 2437,5758 L 2373,5758 Z "/>
       </g>
      </g>
      <g class="com.sun.star.drawing.ClosedBezierShape">
       <g id="id46">
        <rect class="BoundingBox" stroke="none" fill="none" x="2493" y="5458" width="259" height="301"/>
        <path fill="rgb(0,105,180)" stroke="none" d="M 2496,5553 C 2496,5519 2495,5490 2494,5465 L 2556,5465 2559,5509 2561,5509 C 2573,5486 2604,5458 2650,5458 2700,5458 2751,5491 2751,5585 L 2751,5758 2679,5758 2679,5593 C 2679,5551 2664,5519 2625,5519 2597,5519 2578,5540 2570,5563 2568,5569 2567,5578 2567,5587 L 2567,5758 2496,5758 2496,5553 Z "/>
       </g>
      </g>
      <g class="com.sun.star.drawing.ClosedBezierShape">
       <g id="id47">
        <rect class="BoundingBox" stroke="none" fill="none" x="2810" y="5343" width="81" height="416"/>
        <path fill="rgb(0,105,180)" stroke="none" d="M 2814,5465 L 2886,5465 2886,5758 2814,5758 2814,5465 Z M 2849,5423 C 2825,5423 2810,5406 2810,5383 2810,5361 2826,5343 2849,5343 2874,5343 2890,5361 2890,5383 2890,5406 2874,5423 2849,5423 Z "/>
       </g>
      </g>
      <g class="com.sun.star.drawing.ClosedBezierShape">
       <g id="id48">
        <rect class="BoundingBox" stroke="none" fill="none" x="2931" y="5458" width="244" height="308"/>
        <path fill="rgb(0,105,180)" stroke="none" d="M 3100,5614 C 3050,5613 3001,5624 3001,5670 3001,5699 3020,5712 3042,5712 3070,5712 3091,5693 3097,5672 3099,5666 3100,5660 3100,5655 L 3100,5614 Z M 3109,5758 L 3104,5726 3103,5726 C 3085,5748 3056,5765 3020,5765 2962,5765 2931,5722 2931,5678 2931,5603 2993,5566 3098,5566 L 3098,5562 C 3098,5542 3091,5511 3041,5511 3012,5511 2984,5520 2965,5532 L 2951,5484 C 2971,5471 3008,5458 3053,5458 3143,5458 3169,5518 3169,5581 L 3169,5688 C 3169,5714 3170,5740 3173,5758 L 3109,5758 Z "/>
       </g>
      </g>
      <g class="com.sun.star.drawing.ClosedBezierShape">
       <g id="id49">
        <rect class="BoundingBox" stroke="none" fill="none" x="3321" y="5325" width="193" height="434"/>
        <path fill="rgb(0,105,180)" stroke="none" d="M 3361,5758 L 3361,5521 3321,5521 3321,5466 3361,5466 3361,5453 C 3361,5416 3370,5377 3394,5353 3415,5332 3443,5325 3468,5325 3487,5325 3502,5328 3513,5332 L 3508,5389 C 3500,5386 3491,5383 3478,5383 3443,5383 3431,5415 3431,5451 L 3431,5466 3492,5466 3492,5521 3431,5521 3431,5758 3361,5758 Z "/>
       </g>
      </g>
      <g class="com.sun.star.drawing.ClosedBezierShape">
       <g id="id50">
        <rect class="BoundingBox" stroke="none" fill="none" x="3508" y="5458" width="287" height="308"/>
        <path fill="rgb(0,105,180)" stroke="none" d="M 3652,5711 C 3693,5711 3721,5670 3721,5610 3721,5565 3701,5512 3653,5512 3603,5512 3583,5563 3583,5611 3583,5669 3609,5711 3652,5711 Z M 3650,5765 C 3571,5765 3509,5708 3509,5613 3509,5517 3570,5458 3655,5458 3738,5458 3794,5520 3794,5608 3794,5717 3722,5765 3650,5765 Z "/>
       </g>
      </g>
      <g class="com.sun.star.drawing.ClosedBezierShape">
       <g id="id51">
        <rect class="BoundingBox" stroke="none" fill="none" x="3839" y="5458" width="162" height="301"/>
        <path fill="rgb(0,105,180)" stroke="none" d="M 3841,5560 C 3841,5521 3841,5491 3839,5465 L 3902,5465 3904,5522 3906,5522 C 3920,5479 3953,5458 3983,5458 3990,5458 3994,5459 4000,5460 L 4000,5531 C 3994,5530 3988,5528 3979,5528 3945,5528 3922,5551 3916,5584 3914,5591 3913,5599 3913,5607 L 3913,5758 3841,5758 3841,5560 Z "/>
       </g>
      </g>
      <g class="com.sun.star.drawing.ClosedBezierShape">
       <g id="id52">
        <rect class="BoundingBox" stroke="none" fill="none" x="4157" y="5353" width="305" height="413"/>
        <path fill="rgb(0,105,180)" stroke="none" d="M 4228,5353 L 4228,5590 C 4228,5669 4260,5705 4308,5705 4359,5705 4391,5669 4391,5590 L 4391,5353 4461,5353 4461,5585 C 4461,5709 4400,5765 4305,5765 4216,5765 4157,5712 4157,5585 L 4157,5353 4228,5353 Z "/>
       </g>
      </g>
      <g class="com.sun.star.drawing.ClosedBezierShape">
       <g id="id53">
        <rect class="BoundingBox" stroke="none" fill="none" x="4533" y="5353" width="309" height="406"/>
        <path fill="rgb(0,105,180)" stroke="none" d="M 4533,5758 L 4533,5353 4613,5353 4714,5527 C 4740,5572 4763,5619 4781,5663 L 4782,5663 C 4777,5609 4776,5557 4776,5495 L 4776,5353 4841,5353 4841,5758 4768,5758 4666,5581 C 4641,5536 4615,5486 4596,5440 L 4594,5440 C 4597,5494 4598,5547 4598,5613 L 4598,5758 4533,5758 Z "/>
       </g>
      </g>
      <g class="com.sun.star.drawing.PolyPolygonShape">
       <g id="id54">
        <rect class="BoundingBox" stroke="none" fill="none" x="4915" y="5353" width="236" height="406"/>
        <path fill="rgb(0,105,180)" stroke="none" d="M 5133,5579 L 4985,5579 4985,5697 5150,5697 5150,5758 4915,5758 4915,5353 5141,5353 5141,5413 4985,5413 4985,5519 5133,5519 5133,5579 Z "/>
       </g>
      </g>
      <g class="com.sun.star.drawing.ClosedBezierShape">
       <g id="id55">
        <rect class="BoundingBox" stroke="none" fill="none" x="5185" y="5346" width="254" height="419"/>
        <path fill="rgb(0,105,180)" stroke="none" d="M 5201,5678 C 5224,5691 5258,5703 5295,5703 5340,5703 5365,5681 5365,5648 5365,5618 5346,5599 5296,5580 5232,5556 5191,5521 5191,5463 5191,5397 5244,5346 5329,5346 5371,5346 5402,5356 5423,5367 L 5405,5426 C 5391,5418 5364,5407 5327,5407 5282,5407 5263,5432 5263,5455 5263,5487 5285,5501 5337,5522 5405,5548 5438,5584 5438,5643 5438,5708 5390,5764 5290,5764 5249,5764 5206,5752 5185,5739 L 5201,5678 Z "/>
       </g>
      </g>
      <g class="com.sun.star.drawing.ClosedBezierShape">
       <g id="id56">
        <rect class="BoundingBox" stroke="none" fill="none" x="5470" y="5346" width="304" height="419"/>
        <path fill="rgb(0,105,180)" stroke="none" d="M 5769,5746 C 5753,5755 5716,5764 5669,5764 5545,5764 5470,5684 5470,5560 5470,5427 5559,5346 5678,5346 5725,5346 5759,5356 5773,5364 L 5757,5423 C 5739,5415 5714,5407 5681,5407 5602,5407 5544,5459 5544,5556 5544,5646 5595,5703 5681,5703 5710,5703 5739,5697 5758,5688 L 5769,5746 Z "/>
       </g>
      </g>
      <g class="com.sun.star.drawing.ClosedBezierShape">
       <g id="id57">
        <rect class="BoundingBox" stroke="none" fill="none" x="5781" y="5346" width="367" height="420"/>
        <path fill="rgb(0,105,180)" stroke="none" d="M 5964,5705 C 6033,5705 6072,5639 6072,5554 6072,5478 6035,5406 5964,5406 5893,5406 5856,5473 5856,5557 5856,5640 5896,5705 5964,5705 Z M 5959,5765 C 5850,5765 5781,5678 5781,5558 5781,5434 5856,5346 5965,5346 6080,5346 6147,5436 6147,5551 6147,5687 6068,5765 5959,5765 Z "/>
       </g>
      </g>
      <g class="com.sun.star.drawing.ClosedBezierShape">
       <g id="id58">
        <rect class="BoundingBox" stroke="none" fill="none" x="478" y="6334" width="304" height="419"/>
        <path fill="rgb(0,105,180)" stroke="none" d="M 777,6734 C 761,6743 723,6752 676,6752 553,6752 478,6671 478,6548 478,6414 567,6334 685,6334 732,6334 766,6344 781,6352 L 765,6411 C 746,6402 721,6395 688,6395 609,6395 552,6447 552,6545 552,6634 602,6691 688,6691 716,6691 746,6685 766,6676 L 777,6734 Z "/>
       </g>
      </g>
      <g class="com.sun.star.drawing.ClosedBezierShape">
       <g id="id59">
        <rect class="BoundingBox" stroke="none" fill="none" x="798" y="6445" width="287" height="308"/>
        <path fill="rgb(0,105,180)" stroke="none" d="M 941,6699 C 981,6699 1010,6658 1010,6599 1010,6552 990,6500 942,6500 891,6500 871,6550 871,6600 871,6656 898,6699 941,6699 Z M 939,6752 C 859,6752 798,6695 798,6602 798,6505 859,6446 943,6446 1028,6446 1084,6507 1084,6597 1084,6704 1011,6752 939,6752 Z "/>
       </g>
      </g>
      <g class="com.sun.star.drawing.ClosedBezierShape">
       <g id="id60">
        <rect class="BoundingBox" stroke="none" fill="none" x="1129" y="6445" width="418" height="302"/>
        <path fill="rgb(0,105,180)" stroke="none" d="M 1131,6540 C 1131,6506 1130,6478 1129,6453 L 1190,6453 1193,6496 1194,6496 C 1208,6473 1233,6446 1281,6446 1318,6446 1346,6468 1358,6500 L 1360,6500 C 1369,6484 1381,6472 1394,6464 1410,6452 1428,6446 1451,6446 1498,6446 1545,6479 1545,6573 L 1545,6746 1476,6746 1476,6583 C 1476,6535 1460,6506 1425,6506 1401,6506 1383,6524 1376,6545 1374,6552 1372,6561 1372,6570 L 1372,6746 1303,6746 1303,6576 C 1303,6535 1288,6506 1255,6506 1228,6506 1210,6528 1204,6548 1201,6555 1200,6564 1200,6572 L 1200,6746 1131,6746 1131,6540 Z "/>
       </g>
      </g>
      <g class="com.sun.star.drawing.ClosedBezierShape">
       <g id="id61">
        <rect class="BoundingBox" stroke="none" fill="none" x="1605" y="6331" width="81" height="416"/>
        <path fill="rgb(0,105,180)" stroke="none" d="M 1609,6454 L 1681,6454 1681,6746 1609,6746 1609,6454 Z M 1645,6412 C 1621,6412 1605,6393 1605,6371 1605,6348 1622,6331 1645,6331 1670,6331 1685,6348 1685,6371 1685,6393 1670,6412 1645,6412 Z "/>
       </g>
      </g>
      <g class="com.sun.star.drawing.ClosedBezierShape">
       <g id="id62">
        <rect class="BoundingBox" stroke="none" fill="none" x="1728" y="6445" width="202" height="308"/>
        <path fill="rgb(0,105,180)" stroke="none" d="M 1742,6678 C 1758,6688 1789,6699 1814,6699 1845,6699 1859,6686 1859,6667 1859,6647 1848,6637 1813,6624 1758,6604 1735,6573 1736,6539 1736,6486 1777,6446 1842,6446 1873,6446 1901,6454 1917,6463 L 1903,6516 C 1890,6509 1868,6499 1843,6499 1818,6499 1804,6512 1804,6529 1804,6549 1817,6558 1853,6571 1905,6591 1928,6617 1929,6661 1929,6713 1888,6752 1814,6752 1780,6752 1749,6743 1728,6731 L 1742,6678 Z "/>
       </g>
      </g>
      <g class="com.sun.star.drawing.ClosedBezierShape">
       <g id="id63">
        <rect class="BoundingBox" stroke="none" fill="none" x="1970" y="6331" width="83" height="416"/>
        <path fill="rgb(0,105,180)" stroke="none" d="M 1974,6454 L 2047,6454 2047,6746 1974,6746 1974,6454 Z M 2009,6412 C 1986,6412 1970,6393 1970,6371 1970,6348 1986,6331 2010,6331 2035,6331 2050,6348 2051,6371 2051,6393 2035,6412 2009,6412 Z "/>
       </g>
      </g>
      <g class="com.sun.star.drawing.ClosedBezierShape">
       <g id="id64">
        <rect class="BoundingBox" stroke="none" fill="none" x="2092" y="6446" width="243" height="307"/>
        <path fill="rgb(0,105,180)" stroke="none" d="M 2260,6603 C 2210,6602 2162,6613 2162,6658 2162,6686 2180,6700 2202,6700 2231,6700 2251,6680 2258,6659 2259,6654 2260,6648 2260,6643 L 2260,6603 Z M 2269,6746 L 2265,6713 2263,6713 C 2246,6736 2216,6752 2180,6752 2123,6752 2092,6710 2092,6665 2092,6592 2155,6553 2258,6554 L 2258,6549 C 2258,6530 2251,6498 2201,6498 2174,6498 2145,6507 2126,6520 L 2112,6472 C 2133,6459 2169,6446 2213,6446 2304,6446 2330,6506 2330,6570 L 2330,6676 C 2330,6702 2331,6728 2334,6746 L 2269,6746 Z "/>
       </g>
      </g>
      <g class="com.sun.star.drawing.ClosedBezierShape">
       <g id="id65">
        <rect class="BoundingBox" stroke="none" fill="none" x="2516" y="6341" width="309" height="407"/>
        <path fill="rgb(0,105,180)" stroke="none" d="M 2516,6746 L 2516,6341 2596,6341 2697,6514 C 2723,6559 2746,6606 2764,6649 L 2765,6649 C 2760,6595 2758,6543 2758,6482 L 2758,6341 2824,6341 2824,6746 2751,6746 2650,6567 C 2625,6523 2598,6473 2579,6428 L 2577,6428 C 2580,6480 2581,6534 2581,6600 L 2581,6746 2516,6746 Z "/>
       </g>
      </g>
      <g class="com.sun.star.drawing.ClosedBezierShape">
       <g id="id66">
        <rect class="BoundingBox" stroke="none" fill="none" x="2875" y="6446" width="243" height="307"/>
        <path fill="rgb(0,105,180)" stroke="none" d="M 3044,6603 C 2993,6602 2945,6613 2945,6658 2945,6686 2963,6700 2985,6700 3015,6700 3035,6680 3042,6659 3043,6654 3044,6648 3044,6643 L 3044,6603 Z M 3053,6746 L 3049,6713 3047,6713 C 3030,6736 2999,6752 2963,6752 2906,6752 2875,6710 2875,6665 2875,6592 2938,6553 3042,6554 L 3042,6549 C 3042,6530 3035,6498 2984,6498 2957,6498 2928,6507 2909,6520 L 2895,6472 C 2916,6459 2952,6446 2996,6446 3087,6446 3113,6506 3113,6570 L 3113,6676 C 3113,6702 3114,6728 3117,6746 L 3053,6746 Z "/>
       </g>
      </g>
      <g class="com.sun.star.drawing.ClosedBezierShape">
       <g id="id67">
        <rect class="BoundingBox" stroke="none" fill="none" x="3145" y="6369" width="179" height="500"/>
        <path fill="rgb(0,105,180)" stroke="none" d="M 3255,6508 L 3255,6637 C 3255,6672 3265,6691 3292,6691 3304,6691 3313,6689 3320,6687 L 3321,6745 C 3310,6749 3293,6752 3271,6752 L 3259,6774 C 3281,6776 3300,6793 3300,6817 3300,6854 3269,6867 3233,6867 3217,6867 3201,6863 3190,6855 L 3201,6826 C 3210,6832 3222,6835 3232,6835 3243,6835 3254,6830 3254,6818 3254,6805 3239,6797 3209,6794 L 3234,6746 C 3224,6742 3214,6736 3208,6728 3193,6711 3186,6684 3186,6645 L 3186,6508 3145,6508 3145,6453 3186,6453 3186,6387 3255,6369 3255,6453 3323,6453 3323,6508 3255,6508 Z "/>
       </g>
      </g>
      <g class="com.sun.star.drawing.ClosedBezierShape">
       <g id="id68">
        <rect class="BoundingBox" stroke="none" fill="none" x="3364" y="6331" width="81" height="416"/>
        <path fill="rgb(0,105,180)" stroke="none" d="M 3368,6454 L 3440,6454 3440,6746 3368,6746 3368,6454 Z M 3403,6412 C 3379,6412 3364,6393 3364,6371 3364,6348 3380,6331 3403,6331 3427,6331 3443,6348 3444,6371 3444,6393 3427,6412 3403,6412 Z "/>
       </g>
      </g>
      <g class="com.sun.star.drawing.ClosedBezierShape">
       <g id="id69">
        <rect class="BoundingBox" stroke="none" fill="none" x="3487" y="6446" width="286" height="307"/>
        <path fill="rgb(0,105,180)" stroke="none" d="M 3631,6699 C 3671,6699 3699,6658 3699,6599 3699,6552 3680,6500 3631,6500 3581,6500 3561,6550 3561,6600 3561,6656 3587,6699 3631,6699 Z M 3628,6752 C 3548,6752 3487,6695 3487,6602 3487,6505 3547,6446 3633,6446 3716,6446 3772,6507 3772,6597 3772,6704 3700,6752 3628,6752 Z "/>
       </g>
      </g>
      <g class="com.sun.star.drawing.ClosedBezierShape">
       <g id="id70">
        <rect class="BoundingBox" stroke="none" fill="none" x="3817" y="6446" width="260" height="301"/>
        <path fill="rgb(0,105,180)" stroke="none" d="M 3820,6540 C 3820,6506 3819,6478 3817,6453 L 3879,6453 3883,6496 3885,6496 C 3897,6474 3927,6446 3975,6446 4024,6446 4075,6479 4075,6571 L 4075,6746 4004,6746 4004,6580 C 4004,6538 3989,6506 3949,6506 3921,6506 3901,6527 3894,6549 3892,6556 3891,6565 3891,6573 L 3891,6746 3820,6746 3820,6540 Z "/>
       </g>
      </g>
      <g class="com.sun.star.drawing.ClosedBezierShape">
       <g id="id71">
        <rect class="BoundingBox" stroke="none" fill="none" x="4119" y="6446" width="243" height="307"/>
        <path fill="rgb(0,105,180)" stroke="none" d="M 4288,6603 C 4238,6602 4189,6613 4189,6658 4189,6686 4207,6700 4230,6700 4259,6700 4279,6680 4286,6659 4287,6654 4288,6648 4288,6643 L 4288,6603 Z M 4297,6746 L 4293,6713 4291,6713 C 4274,6736 4244,6752 4207,6752 4151,6752 4119,6710 4119,6665 4119,6592 4182,6553 4286,6554 L 4286,6549 C 4286,6530 4279,6498 4229,6498 4201,6498 4172,6507 4153,6520 L 4139,6472 C 4160,6459 4196,6446 4241,6446 4331,6446 4357,6506 4357,6570 L 4357,6676 C 4357,6702 4358,6728 4361,6746 L 4297,6746 Z "/>
       </g>
      </g>
      <g class="com.sun.star.drawing.PolyPolygonShape">
       <g id="id72">
        <rect class="BoundingBox" stroke="none" fill="none" x="4420" y="6319" width="73" height="428"/>
        <path fill="rgb(0,105,180)" stroke="none" d="M 4420,6319 L 4492,6319 4492,6746 4420,6746 4420,6319 Z "/>
       </g>
      </g>
      <g class="com.sun.star.drawing.ClosedBezierShape">
       <g id="id73">
        <rect class="BoundingBox" stroke="none" fill="none" x="4539" y="6331" width="243" height="422"/>
        <path fill="rgb(0,105,180)" stroke="none" d="M 4708,6603 C 4657,6602 4609,6613 4609,6658 4609,6686 4627,6700 4650,6700 4678,6700 4699,6680 4706,6659 4708,6654 4708,6648 4708,6643 L 4708,6603 Z M 4630,6332 C 4632,6354 4645,6371 4666,6371 4692,6371 4704,6352 4705,6332 L 4744,6332 C 4744,6380 4716,6413 4667,6413 4615,6413 4591,6375 4591,6332 L 4630,6332 Z M 4718,6746 L 4713,6713 4711,6713 C 4693,6736 4664,6752 4627,6752 4571,6752 4539,6710 4539,6665 4539,6592 4602,6554 4707,6555 L 4707,6550 C 4707,6531 4698,6499 4649,6499 4621,6499 4592,6508 4573,6521 L 4559,6472 C 4580,6459 4616,6446 4661,6446 4752,6446 4777,6507 4777,6570 L 4777,6676 C 4777,6702 4779,6728 4781,6746 L 4718,6746 Z "/>
       </g>
      </g>
      <g class="com.sun.star.drawing.ClosedBezierShape">
       <g id="id74">
        <rect class="BoundingBox" stroke="none" fill="none" x="4940" y="6445" width="246" height="308"/>
        <path fill="rgb(0,105,180)" stroke="none" d="M 5110,6603 C 5060,6602 5012,6613 5012,6658 5012,6686 5030,6700 5052,6700 5080,6700 5101,6680 5107,6659 5109,6654 5110,6648 5110,6643 L 5110,6603 Z M 5119,6746 L 5114,6713 5113,6713 C 5095,6736 5066,6752 5030,6752 4973,6752 4940,6710 4940,6665 4940,6592 5004,6553 5108,6554 L 5108,6549 C 5108,6530 5100,6498 5051,6498 5023,6498 4994,6507 4975,6520 L 4962,6472 C 4982,6459 5019,6446 5063,6446 5153,6446 5179,6506 5179,6570 L 5179,6676 C 5179,6702 5180,6728 5184,6746 L 5119,6746 Z "/>
       </g>
      </g>
      <g class="com.sun.star.drawing.ClosedBezierShape">
       <g id="id75">
        <rect class="BoundingBox" stroke="none" fill="none" x="498" y="6973" width="277" height="409"/>
        <path fill="rgb(0,105,180)" stroke="none" d="M 568,7161 L 610,7161 C 658,7161 689,7134 689,7093 689,7049 658,7028 612,7028 590,7028 575,7030 568,7032 L 568,7161 Z M 498,6981 C 525,6976 564,6973 605,6973 661,6973 700,6982 726,7005 747,7024 760,7052 760,7086 760,7139 726,7175 689,7188 L 689,7190 C 717,7201 734,7229 743,7268 755,7319 766,7365 774,7381 L 701,7381 C 695,7369 685,7336 674,7285 663,7233 644,7216 604,7215 L 568,7215 568,7381 498,7381 498,6981 Z "/>
       </g>
      </g>
      <g class="com.sun.star.drawing.ClosedBezierShape">
       <g id="id76">
        <rect class="BoundingBox" stroke="none" fill="none" x="795" y="7081" width="287" height="307"/>
        <path fill="rgb(0,105,180)" stroke="none" d="M 938,7334 C 978,7334 1008,7293 1008,7234 1008,7188 987,7135 939,7135 889,7135 868,7187 868,7235 868,7292 895,7334 938,7334 Z M 936,7387 C 856,7387 795,7330 795,7237 795,7140 856,7081 940,7081 1025,7081 1081,7142 1081,7232 1081,7339 1008,7387 936,7387 Z "/>
       </g>
      </g>
      <g class="com.sun.star.drawing.ClosedBezierShape">
       <g id="id77">
        <rect class="BoundingBox" stroke="none" fill="none" x="1126" y="7081" width="419" height="301"/>
        <path fill="rgb(0,105,180)" stroke="none" d="M 1128,7175 C 1128,7141 1127,7113 1126,7088 L 1187,7088 1190,7131 1191,7131 C 1205,7108 1231,7081 1278,7081 1315,7081 1343,7103 1356,7135 L 1357,7135 C 1366,7119 1378,7107 1391,7099 1407,7087 1425,7081 1448,7081 1495,7081 1543,7114 1543,7208 L 1543,7381 1473,7381 1473,7219 C 1473,7170 1457,7141 1422,7141 1398,7141 1380,7159 1373,7180 1371,7187 1369,7196 1369,7205 L 1369,7381 1300,7381 1300,7211 C 1300,7170 1285,7141 1252,7141 1225,7141 1207,7163 1201,7183 1198,7190 1197,7199 1197,7207 L 1197,7381 1128,7381 1128,7175 Z "/>
       </g>
      </g>
      <g class="com.sun.star.drawing.ClosedBezierShape">
       <g id="id78">
        <rect class="BoundingBox" stroke="none" fill="none" x="1587" y="6961" width="243" height="427"/>
        <path fill="rgb(0,105,180)" stroke="none" d="M 1755,7238 C 1705,7237 1657,7248 1657,7293 1657,7321 1675,7335 1697,7335 1726,7335 1746,7315 1753,7295 1754,7289 1755,7283 1755,7278 L 1755,7238 Z M 1736,6961 L 1792,7051 1743,7051 1712,6995 1711,6995 1681,7051 1632,7051 1688,6961 1736,6961 Z M 1764,7381 L 1760,7349 1758,7349 C 1741,7371 1711,7387 1675,7387 1619,7387 1587,7345 1587,7301 1587,7227 1650,7190 1753,7190 L 1753,7185 C 1753,7166 1746,7134 1696,7134 1669,7134 1640,7143 1621,7156 L 1607,7108 C 1628,7095 1664,7082 1708,7082 1798,7082 1825,7142 1825,7205 L 1825,7311 C 1825,7337 1826,7363 1829,7381 L 1764,7381 Z "/>
       </g>
      </g>
      <g class="com.sun.star.drawing.ClosedBezierShape">
       <g id="id79">
        <rect class="BoundingBox" stroke="none" fill="none" x="1885" y="7081" width="259" height="301"/>
        <path fill="rgb(0,105,180)" stroke="none" d="M 1888,7175 C 1888,7141 1887,7113 1886,7088 L 1949,7088 1952,7132 1954,7132 C 1966,7109 1997,7081 2043,7081 2092,7081 2143,7114 2143,7207 L 2143,7381 2072,7381 2072,7215 C 2072,7173 2057,7141 2019,7141 1990,7141 1971,7162 1963,7184 1961,7191 1960,7200 1960,7208 L 1960,7381 1888,7381 1888,7175 Z "/>
       </g>
      </g>
      <g class="com.sun.star.drawing.ClosedBezierShape">
       <g id="id80">
        <rect class="BoundingBox" stroke="none" fill="none" x="2202" y="6966" width="81" height="416"/>
        <path fill="rgb(0,105,180)" stroke="none" d="M 2206,7088 L 2278,7088 2278,7381 2206,7381 2206,7088 Z M 2241,7046 C 2217,7046 2202,7028 2202,7006 2202,6983 2218,6966 2241,6966 2267,6966 2282,6983 2282,7006 2282,7028 2267,7046 2241,7046 Z "/>
       </g>
      </g>
      <g class="com.sun.star.drawing.ClosedBezierShape">
       <g id="id81">
        <rect class="BoundingBox" stroke="none" fill="none" x="2325" y="7081" width="260" height="307"/>
        <path fill="rgb(0,105,180)" stroke="none" d="M 2517,7204 C 2518,7177 2506,7132 2459,7132 2414,7132 2396,7174 2393,7204 L 2517,7204 Z M 2393,7256 C 2395,7308 2434,7331 2480,7331 2513,7331 2537,7326 2558,7318 L 2568,7369 C 2544,7379 2511,7387 2470,7387 2379,7387 2325,7329 2325,7239 2325,7158 2372,7081 2463,7081 2554,7081 2584,7160 2584,7224 2584,7238 2583,7249 2582,7256 L 2393,7256 Z "/>
       </g>
      </g>
      <g class="com.sun.star.drawing.ClosedBezierShape">
       <g id="id82">
        <rect class="BoundingBox" stroke="none" fill="none" x="2627" y="6966" width="82" height="416"/>
        <path fill="rgb(0,105,180)" stroke="none" d="M 2632,7088 L 2704,7088 2704,7381 2632,7381 2632,7088 Z M 2668,7046 C 2643,7046 2628,7028 2628,7006 2628,6983 2644,6966 2668,6966 2693,6966 2708,6983 2708,7006 2708,7028 2693,7046 2668,7046 Z "/>
       </g>
      </g>
      <g class="com.sun.star.drawing.ClosedBezierShape">
       <g id="id83">
        <rect class="BoundingBox" stroke="none" fill="none" x="2885" y="7081" width="283" height="420"/>
        <path fill="rgb(0,105,180)" stroke="none" d="M 2959,7258 C 2959,7265 2960,7271 2962,7278 2968,7309 2994,7330 3024,7330 3069,7330 3095,7291 3095,7233 3095,7181 3071,7139 3025,7139 2996,7139 2969,7162 2962,7194 2960,7200 2959,7207 2959,7213 L 2959,7258 Z M 2887,7185 C 2887,7147 2886,7115 2885,7088 L 2947,7088 2952,7133 2953,7133 C 2974,7100 3007,7081 3049,7081 3114,7081 3167,7139 3167,7230 3167,7336 3103,7387 3039,7387 3004,7387 2975,7372 2960,7349 L 2959,7349 2959,7500 2887,7500 2887,7185 Z "/>
       </g>
      </g>
      <g class="com.sun.star.drawing.ClosedBezierShape">
       <g id="id84">
        <rect class="BoundingBox" stroke="none" fill="none" x="3200" y="7081" width="260" height="307"/>
        <path fill="rgb(0,105,180)" stroke="none" d="M 3392,7204 C 3393,7177 3381,7132 3334,7132 3290,7132 3272,7174 3269,7204 L 3392,7204 Z M 3269,7256 C 3271,7308 3310,7331 3355,7331 3388,7331 3412,7326 3433,7318 L 3444,7369 C 3419,7379 3386,7387 3346,7387 3255,7387 3200,7329 3200,7239 3200,7158 3248,7081 3338,7081 3429,7081 3459,7160 3459,7224 3459,7238 3458,7249 3457,7256 L 3269,7256 Z "/>
       </g>
      </g>
      <g class="com.sun.star.drawing.ClosedBezierShape">
       <g id="id85">
        <rect class="BoundingBox" stroke="none" fill="none" x="3505" y="7081" width="258" height="301"/>
        <path fill="rgb(0,105,180)" stroke="none" d="M 3507,7175 C 3507,7141 3506,7113 3505,7088 L 3567,7088 3570,7132 3572,7132 C 3584,7109 3615,7081 3661,7081 3710,7081 3762,7114 3762,7207 L 3762,7381 3690,7381 3690,7215 C 3690,7173 3675,7141 3636,7141 3608,7141 3589,7162 3581,7184 3579,7191 3578,7200 3578,7208 L 3578,7381 3507,7381 3507,7175 Z "/>
       </g>
      </g>
      <g class="com.sun.star.drawing.ClosedBezierShape">
       <g id="id86">
        <rect class="BoundingBox" stroke="none" fill="none" x="3794" y="7004" width="179" height="384"/>
        <path fill="rgb(0,105,180)" stroke="none" d="M 3904,7004 L 3904,7089 3972,7089 3972,7144 3904,7144 3904,7273 C 3904,7308 3913,7327 3940,7327 3952,7327 3962,7325 3969,7323 L 3970,7380 C 3958,7384 3940,7387 3917,7387 3892,7387 3870,7378 3856,7363 3841,7346 3835,7320 3835,7281 L 3835,7144 3794,7144 3794,7089 3835,7089 3835,7022 3904,7004 Z "/>
       </g>
      </g>
      <g class="com.sun.star.drawing.ClosedBezierShape">
       <g id="id87">
        <rect class="BoundingBox" stroke="none" fill="none" x="4009" y="7081" width="162" height="301"/>
        <path fill="rgb(0,105,180)" stroke="none" d="M 4012,7182 C 4012,7142 4011,7114 4010,7088 L 4072,7088 4074,7144 4077,7144 C 4091,7102 4123,7081 4153,7081 4160,7081 4164,7082 4170,7083 L 4170,7153 C 4164,7151 4158,7150 4149,7150 4115,7150 4092,7173 4086,7206 4085,7213 4084,7220 4084,7229 L 4084,7381 4012,7381 4012,7182 Z "/>
       </g>
      </g>
      <g class="com.sun.star.drawing.ClosedBezierShape">
       <g id="id88">
        <rect class="BoundingBox" stroke="none" fill="none" x="4206" y="7088" width="256" height="300"/>
        <path fill="rgb(0,105,180)" stroke="none" d="M 4459,7292 C 4459,7328 4460,7357 4461,7381 L 4398,7381 4395,7337 4394,7337 C 4381,7357 4354,7387 4304,7387 4252,7387 4206,7356 4206,7259 L 4206,7088 4277,7088 4277,7247 C 4277,7295 4292,7328 4329,7328 4357,7328 4376,7307 4383,7287 4386,7280 4387,7272 4387,7264 L 4387,7088 4459,7088 4459,7292 Z "/>
       </g>
      </g>
      <g class="com.sun.star.drawing.ClosedBezierShape">
       <g id="id89">
        <rect class="BoundingBox" stroke="none" fill="none" x="4646" y="6976" width="305" height="412"/>
        <path fill="rgb(0,105,180)" stroke="none" d="M 4718,6976 L 4718,7212 C 4718,7292 4749,7328 4797,7328 4848,7328 4879,7292 4879,7212 L 4879,6976 4950,6976 4950,7208 C 4950,7332 4888,7387 4795,7387 4705,7387 4646,7335 4646,7208 L 4646,6976 4718,6976 Z "/>
       </g>
      </g>
      <g class="com.sun.star.drawing.ClosedBezierShape">
       <g id="id90">
        <rect class="BoundingBox" stroke="none" fill="none" x="5021" y="6976" width="310" height="407"/>
        <path fill="rgb(0,105,180)" stroke="none" d="M 5021,7381 L 5021,6976 5103,6976 5203,7150 C 5229,7195 5251,7242 5269,7286 L 5270,7286 C 5266,7232 5264,7179 5264,7118 L 5264,6976 5330,6976 5330,7381 5256,7381 5155,7203 C 5130,7159 5104,7109 5085,7063 L 5084,7063 C 5087,7116 5087,7170 5087,7236 L 5087,7381 5021,7381 Z "/>
       </g>
      </g>
      <g class="com.sun.star.drawing.PolyPolygonShape">
       <g id="id91">
        <rect class="BoundingBox" stroke="none" fill="none" x="5403" y="6976" width="236" height="406"/>
        <path fill="rgb(0,105,180)" stroke="none" d="M 5621,7202 L 5474,7202 5474,7320 5638,7320 5638,7381 5403,7381 5403,6976 5630,6976 5630,7036 5474,7036 5474,7142 5621,7142 5621,7202 Z "/>
       </g>
      </g>
      <g class="com.sun.star.drawing.ClosedBezierShape">
       <g id="id92">
        <rect class="BoundingBox" stroke="none" fill="none" x="5673" y="6969" width="255" height="419"/>
        <path fill="rgb(0,105,180)" stroke="none" d="M 5689,7301 C 5712,7314 5746,7326 5783,7326 5828,7326 5854,7304 5854,7270 5854,7240 5834,7222 5784,7203 5720,7179 5680,7144 5680,7085 5680,7020 5733,6969 5817,6969 5859,6969 5890,6979 5910,6990 L 5893,7049 C 5879,7041 5852,7030 5816,7030 5771,7030 5751,7055 5751,7078 5751,7109 5774,7124 5825,7145 5893,7171 5927,7207 5927,7265 5927,7331 5878,7387 5778,7387 5737,7387 5695,7375 5673,7362 L 5689,7301 Z "/>
       </g>
      </g>
      <g class="com.sun.star.drawing.ClosedBezierShape">
       <g id="id93">
        <rect class="BoundingBox" stroke="none" fill="none" x="5958" y="6969" width="304" height="419"/>
        <path fill="rgb(0,105,180)" stroke="none" d="M 6258,7369 C 6241,7378 6204,7387 6156,7387 6033,7387 5958,7307 5958,7183 5958,7049 6047,6969 6166,6969 6213,6969 6247,6979 6261,6987 L 6246,7046 C 6227,7037 6202,7030 6169,7030 6090,7030 6033,7082 6033,7179 6033,7268 6083,7326 6168,7326 6198,7326 6228,7320 6246,7311 L 6258,7369 Z "/>
       </g>
      </g>
      <g class="com.sun.star.drawing.ClosedBezierShape">
       <g id="id94">
        <rect class="BoundingBox" stroke="none" fill="none" x="6269" y="6968" width="367" height="420"/>
        <path fill="rgb(0,105,180)" stroke="none" d="M 6453,7328 C 6521,7328 6560,7261 6560,7177 6560,7100 6524,7029 6453,7029 6383,7029 6344,7096 6344,7180 6344,7262 6385,7328 6453,7328 Z M 6449,7387 C 6338,7387 6269,7301 6269,7181 6269,7057 6344,6969 6455,6969 6568,6969 6635,7058 6635,7174 6635,7310 6556,7387 6449,7387 Z "/>
       </g>
      </g>
      <g class="com.sun.star.drawing.PolyPolygonShape">
       <g id="id95">
        <rect class="BoundingBox" stroke="none" fill="none" x="4294" y="1134" width="557" height="1001"/>
        <path fill="rgb(20,56,127)" stroke="none" d="M 4294,1134 L 4850,1134 4850,2134 4294,2134 4294,1134 Z "/>
       </g>
      </g>
      <g class="com.sun.star.drawing.PolyPolygonShape">
       <g id="id96">
        <rect class="BoundingBox" stroke="none" fill="none" x="4849" y="1134" width="557" height="1001"/>
        <path fill="rgb(251,186,0)" stroke="none" d="M 4849,1134 L 5405,1134 5405,2134 4849,2134 4849,1134 Z "/>
       </g>
      </g>
      <g class="com.sun.star.drawing.PolyPolygonShape">
       <g id="id97">
        <rect class="BoundingBox" stroke="none" fill="none" x="5404" y="1134" width="556" height="1001"/>
        <path fill="rgb(210,10,17)" stroke="none" d="M 5404,1134 L 5959,1134 5959,2134 5404,2134 5404,1134 Z "/>
       </g>
      </g>
     </g>
    </g>
   </g>
  </g>
 </g>
</svg>